<?xml version="1.0" encoding="UTF-8"?>
<svg id="Calque_2" data-name="Calque 2" xmlns="http://www.w3.org/2000/svg" viewBox="0 0 2746.36 2541.56" xmlns:xlink="http://www.w3.org/1999/xlink">
    <g id="hover-label" class="hover-label">
      <text
        id="hover-label-text"
        class="hover-label-text"
        x="50%"
        y="8%"
        text-anchor="middle">
        Aureval
      </text>
    </g>
    <defs>
      <style>
          /* Classes exportées par le logiciel */
          .cls-1,
          .cls-2 {
            stroke-linecap: round;
            stroke-linejoin: round;
            stroke-width: 1.5px;
          }

          /* Fond de carte par défaut (régions) */
          .cls-1 {
            fill: #f5e7d6;          /* beige clair, tu peux changer si besoin */
            stroke: #c09070;
            transition: fill 0.25s ease, stroke 0.25s ease, opacity 0.25s ease;
          }

          /* Cercles des villes */
          .cls-2 {
            fill: #ffffff;
            stroke: #c09070;
            transition: fill 0.2s ease, stroke 0.2s ease, r 0.2s ease, opacity 0.2s ease;
          }

          /* Liens cliquables */
          .region-link {
            cursor: pointer;
          }

          .ville-link {
            cursor: pointer;
          }

          /* Surbrillance région (hover direct OU via une ville) */
          .region-link:hover .cls-1,
          .region-link.is-hovered .cls-1 {
            fill: rgba(179, 116, 23, 1); /* filtre rose transparent */
            stroke: #f1a6b8;                  /* contour plus vif */
          }

          /* Surbrillance ville */
          .ville-link:hover .cls-2 {
            fill: #FFC300;
            stroke: #ffffff;
            stroke-width: 2px;
            filter: drop-shadow(0 0 6px rgba(244, 168, 184, 0.6)); /* glow */
          }
                /* --- Effets sur les villes --- */

          /* Villes par défaut : transition douce */
          .city .cls-2,
          .city .cls-3 {
            transition:
              opacity 0.2s ease,
              filter 0.2s ease,
              stroke-width 0.2s ease;
          }

          /* Glow + surbrillance quand une ville est hover */
          .city:hover .cls-2,
          .city:hover .cls-3 {
            filter: url(#city-glow);
            stroke: #ffefc5;
            stroke-width: 1.8;
            opacity: 1;
          }
                /* --- TRANSITIONS GLOBALES --- */
          .region path,
          .region polygon,
          .city .cls-2,
          .city .cls-3 {
            transition:
              fill 0.25s ease,
              stroke 0.25s ease,
              opacity 0.25s ease,
              filter 0.25s ease,
              stroke-width 0.25s ease;
          }

          /* --- GLOW DES VILLES --- */

          /* Par défaut, les villes restent comme dans ton SVG, rien touché */

          /* Survol d'une ville : gros glow + contour visible */
          .city:hover .cls-2,
          .city:hover .cls-3 {
            filter: url(#city-glow);
            stroke: #ffeec4;
            stroke-width: 2;
            opacity: 1;
          }

          /* --- COULEUR PAR RÉGION AU SURVOL --- */

          /* Haut-Val */
          #Haut-Val.region:hover path,
          #Haut-Val.region:hover polygon {
            fill: #f5e1c5;  /* beige doré doux */
            opacity: 1;
          }

          /* Roselle */
          #Roselle.region:hover path,
          #Roselle.region:hover polygon {
            fill: #f8d0d8;  /* rose pâle */
            opacity: 1;
          }

          /* Doussetoile */
          #Doussetoile.region:hover path,
          #Doussetoile.region:hover polygon {
            fill: #d5e3ff;  /* bleu pâle */
            opacity: 1;
          }

          /* Veldoré */
          #Veldoré.region:hover path,
          #Veldoré.region:hover polygon {
            fill: #d8f0d2;  /* vert doux */
            opacity: 1;
          }
      </style>

    <!-- Glow large et diffus pour les villes -->
      <filter id="city-glow" x="-100%" y="-100%" width="300%" height="300%">
        <!-- Flou très large -->
        <feGaussianBlur in="SourceGraphic" stdDeviation="6" result="blur" />
        <!-- On renforce un peu la lumière -->
        <feColorMatrix
          in="blur"
          type="matrix"
          values="
            1 0 0 0 0
            0 1 0 0 0
            0 0 1 0 0
            0 0 0 0.9 0"
          result="glow"
        />
        <feMerge>
          <feMergeNode in="glow" />
          <feMergeNode in="SourceGraphic" />
        </feMerge>
      </filter>

  </defs>
  <g id="Calque_1-2" data-name="Calque 1">
    <a
      xlink:href="/univers/lieux/regions/haut-val"
      class="region-link"
    >
      <title>Haut-Val</title>
      <g id="Haut-Val" class="region">
        <path class="cls-1" d="M2070.34,714.42c.15-.77.35-1.58.49-2.19.14-.58.28-1.16.4-1.71.51-2.33.82-4.56,1.13-6.72.26-1.85.51-3.61.87-5.36,2.49-12.24-3.18-18.02-9.17-24.14-.57-.58-1.16-1.19-1.77-1.82-2.29-2.38-2.96-4.47-3-9.36,0-.72.03-1.46.06-2.2.15-3.63.34-8.16-2.91-11.54-1.35-1.41-3.82-3.08-7.96-3.08-.21,0-.42,0-.64.01-1.96.08-3.75.85-5.47,1.61-.63.27-1.68.73-2.07.82-1.19.15-2.79.24-4.21.24-1.87,0-2.73-.16-2.96-.21-.74-.17-1.49-.25-2.29-.25-.1,0-.21,0-.31,0-.92-1.76-3.01-4.87-8.19-5.15l-4.42-.24-1.53,4.15c-1.13,3.07-3.26,6.05-5.5,9.19-1.24,1.73-2.52,3.52-3.68,5.41-1.93,3.13-4.47,5.93-7.16,8.9-2.9,3.19-5.89,6.49-8.41,10.52-.49.78-.99,1.58-1.5,2.4-6.48,10.43-14.54,23.41-25.4,25.79-1.11.24-2.16.37-3.11.37-2.38,0-4.13-.73-5.7-2.36-7.68-8.03-6.59-32.17-6.13-42.48l.08-1.92c.51-12.02,3.32-23.85,6.3-36.39,4.87-20.47,9.9-41.63,3.96-63.41-3.57-13.09-3.22-23.23,1.07-30.99.86-1.56,1.87-3.28,2.93-5.1,5.62-9.62,12.62-21.59,12.26-32.58l-.16-4.67-4.57-.99c-2.11-.46-4.28-.5-6.14-.5h-1.41c-.58,0-2.12,0-3.04-.14-.01-.28-.01-.68.04-1.22.09-.97.42-2.24.74-3.47.9-3.46,2.02-7.77-.8-11.43-1.22-1.57-3.59-3.45-8.01-3.45-1.15,0-2.41.12-3.85.36-5.1.86-9.71,2.81-14.17,4.7-5.07,2.15-9.87,4.18-14.56,4.18-.14,0-.28,0-.42,0-.87-.02-1.43-.1-1.76-.18-.12-.85-.13-2.4-.13-3.59,0-1.2,0-2.56-.08-4.01-.72-13.53-6.86-15.22-16.13-16.24-3.97-.44-5.35-1.14-5.24-7.34.02-1.05.08-2.07.13-3.08.32-5.77.81-14.49-8.7-19.2-3.45-1.71-6.93-2.63-9.99-3.43-4-1.05-7.45-1.96-10.4-4.36-2.2-1.79-3.99-4.41-5.89-7.18-2.51-3.67-5.35-7.82-9.74-10.72-4.14-2.73-10.36-4.12-18.5-4.12-3.78,0-7.28.3-9.54.55-6.22.69-12.35,2.25-18.27,3.76-7.57,1.93-14.71,3.74-21.58,3.74-6,0-10.99-1.39-15.72-4.37-4.94-3.11-9.23-8.74-12.28-15.95,8.8-.63,17.54-1.95,26.09-3.94,10.26-.42,19.21-4.08,26.62-10.89l1.13-1.04.49-1.46c3.25-9.6-.14-19.77-3.13-28.75-2.02-6.06-3.92-11.78-3.75-16.59.2-5.74,2.32-10.36,4.78-15.71,2.4-5.23,4.88-10.64,5.66-17.46,1.46-12.7-3.76-23.26-8.8-33.48-2.73-5.53-5.34-10.81-6.76-16.18,1.82-.38,3.76-.64,5.76-.9,7.14-.95,16.02-2.12,22.22-10.34,4.26-5.65,5.13-11.66,5.82-16.5.96-6.71,1.55-9.14,6.58-11.22,13.36-5.52,29-7.95,44.13-10.3,4.87-.76,9.9-1.54,14.71-2.4,4.03-.73,7.99-1.55,11.82-2.34,10.23-2.12,19.9-4.12,29.57-4.12,7.15,0,13.7,1.12,20.03,3.42,9.35,4.63,18.67,9.63,27.7,14.86l.87.5.99.19c3.15.62,6.32.93,9.4.93,7.88,0,15.56-2.02,22.83-6.01l.12-.07c5.04-2.91,10.14-4.33,15.6-4.33,1.07,0,2.17.06,3.27.17,2.34,1.59,4.42,3.51,6.2,5.7l1.34,1.66,2.09.44c1.07.22,2.16.33,3.26.33,15.94,0,29.11-23.6,31.91-33.44l.14-.48.06-.5c.75-6.68,2.03-13.36,3.79-19.87,5.41-6.76,5.09-13.31,3.8-17.71l-1.77-6.04s-5.96,2.07-5.96,2.07c-.49-.43-1.39-1.37-2.75-3.33l-2.42-3.48c-.11-4.03.99-10.88,3.66-17.62,2.35-5.94,5.99-6.51,15.78-6.63,1.62-.02,3.3-.04,5.01-.12,9.05-.44,16.12-5.2,22.35-9.41,2.99-2.01,5.81-3.92,8.69-5.29,1.86-.89,3.34-.95,6.25-.99,1.71-.03,3.66-.06,5.94-.36,2.39-.32,4.23-1.21,5.45-1.8.33-.16.78-.38.94-.43.48-.1,1.12-.12,1.91-.12h1.4c1.06,0,2.33-.02,3.76-.25,9.78-1.59,18.73-7.09,26.63-11.95.96-.59,1.9-1.17,2.83-1.73,2.79-1.69,6.15-2.5,9.7-3.35,5.5-1.32,11.72-2.81,17.34-7.84,2.13-1.91,3.5-4.04,4.71-5.91.92-1.43,1.72-2.67,2.77-3.74,2.28-2.32,2.49-2.36,5.91-3.08.74-.16,1.57-.33,2.5-.55,8.39-1.94,16.09-6.58,23.54-11.07,2.53-1.53,4.93-2.97,7.25-4.25,8.26-4.53,18.72-7.62,26.64-7.86,4.77-.15,9.49-.96,14.06-1.74,4.92-.85,9.57-1.64,14.14-1.64,1.91,0,3.65.14,5.32.43,3.93.68,7.62,2.72,11.53,4.88,4.65,2.57,9.46,5.23,15.29,6.02,1.08.15,2.2.22,3.33.22,3.66,0,6.97-.75,9.89-1.42,2.23-.51,4.33-.98,6.04-.98,1.48,0,3.26.24,5.59,3.14,1.16,1.44,2.02,3.56,2.94,5.8,1.37,3.35,2.92,7.15,6.03,10.27,2.95,2.96,6.35,4.52,9.34,5.9,2.69,1.24,5,2.3,6.53,4.16,2.42,2.94,4.03,6.49,5.74,10.24,2.92,6.42,6.23,13.7,14.2,18.48,4.9,2.94,9.84,5.11,14.62,7.21,6.06,2.66,11.78,5.18,17.04,9.06,3.99,2.95,7.65,6.78,9.79,10.25,1.62,2.63,2.27,5.31,3.03,8.42.44,1.83.9,3.71,1.59,5.75,2.41,7.19,6.16,13.94,9.77,20.48,2.44,4.41,4.75,8.57,6.64,12.79,2.31,5.16,1.94,12.31,1.59,19.22-.18,3.5-.36,7.12-.22,10.58.69,16.23,13.44,21.08,23.68,24.98,1.37.52,2.75,1.05,4.1,1.6,6.03,2.46,8.05,6.61,10.83,12.35,2,4.12,4.27,8.8,8.36,13.09,4.5,4.72,9.42,6.04,13.76,7.21,1.6.43,3.12.84,4.64,1.41,1.84.69,3.68,1.37,5.53,2.06,5.11,1.89,10.39,3.85,15.43,5.94,1.76.73,3.47,1.35,5.14,1.96,3.39,1.24,6.6,2.4,9.4,4.21,3.97,2.56,7.6,5.82,11.45,9.27,2.15,1.93,4.37,3.92,6.67,5.8,1.97,1.61,4.04,3.11,6.05,4.57,8.38,6.09,13.49,10.31,13.75,17.53.66,17.99,6.16,30.17,15.91,35.22,4.18,2.16,8.49,3.11,12.3,3.94,6.53,1.43,10.38,2.45,13.51,6.75,6.8,9.34,9.89,23.24,12.62,35.49.38,1.71.76,3.4,1.13,5.04,1.07,4.64,1.18,9.46,1.29,14.56.15,6.69.31,13.6,2.64,20.7.86,2.63,2.24,4.92,3.45,6.95.85,1.42,1.65,2.76,2.16,4.01,1.87,4.57,1.76,9.49,1.63,15.19-.03,1.49-.07,2.99-.07,4.51,0,1.72.11,3.56.21,5.33.22,3.84.47,8.19-.44,10.91-.94,2.79-4.86,5.48-8.33,7.85-1.18.81-2.4,1.64-3.52,2.49-1.46,1.1-3.11,2.07-4.86,3.09-2.09,1.22-4.25,2.48-6.38,4.14-2.96,2.3-5.34,4.91-7.65,7.43-1.48,1.62-2.88,3.16-4.36,4.52l-.12.11c-12.95,11.97-25.18,23.28-36.48,36.96-1.26,1.53-2.5,3.04-3.72,4.54-9.55,11.69-17.79,21.78-30.55,28.73-10.2,5.55-18.37,13.78-26.28,21.74-8.35,8.41-16.24,16.35-26.07,21.01-7.45,3.53-14.08,4.57-22.36,5.1-10.52.68-17.55,5.22-25,10.02-.78.5-1.56,1.01-2.37,1.52-5.39,3.43-10.62,7.17-15.68,10.78-16.43,11.75-31.95,22.85-52.02,23.26-.27,0-.55,0-.82,0-3.89,0-7.62-.54-11.56-1.12-3.94-.58-8.02-1.17-12.26-1.17-4.87,0-9.28.8-13.5,2.45-10.03,3.92-23.31,8.75-37.05,11.27-11.16,2.05-22.62,2.32-32.36,2.32-3.47,0-6.93-.04-10.4-.08-3.51-.04-7.03-.08-10.54-.08-11.18,0-24.37.36-37.41,3.07-2.46.51-4.9.99-7.33,1.48-10.3,2.05-20.95,4.16-31.51,7.97-3.37,1.22-6.43,2.61-9.24,4.21-1.05-1.65-2.51-3.56-4.99-4.81-1.44-.73-3.11-1.1-4.96-1.1-4.4,0-9.42,2.1-13.45,3.79-1.17.49-2.27.95-2.95,1.18-4.12,1.38-7.88,3.16-11.53,4.88-2.63,1.24-5.11,2.41-7.67,3.42l-.1.04c-3.41,1.35-7.66,3.02-10.94,3.02-.42,0-.82-.03-1.17-.09-1.44-.23-2.26-.5-3.14-.8-1.18-.39-2.64-.88-4.62-.88-1.56,0-3.22.3-5.37.97-9.29,2.88-18.17,7.05-26.75,11.08-3.77,1.77-7.66,3.6-11.45,5.25-4.72,2.06-8.08,3.36-12.25,4.34-1.6.38-3.41,1.12-5.33,1.9-.8.33-1.92.79-2.85,1.12Z"/>
        <path class="cls-3" d="M2318.79,12c1.57,0,2.98.11,4.31.34,2.93.5,6.04,2.22,9.64,4.22,4.89,2.71,10.44,5.78,17.4,6.71,1.34.18,2.74.27,4.13.27,4.33,0,8.15-.87,11.22-1.57,1.8-.41,3.67-.83,4.71-.83.02,0,.04,0,.06,0,.15.12.44.38.86.9.61.75,1.38,2.64,2.06,4.31,1.5,3.68,3.37,8.27,7.34,12.24,3.71,3.72,7.8,5.6,11.08,7.11,2.02.93,3.76,1.73,4.41,2.52,1.92,2.33,3.3,5.38,4.91,8.91,3.12,6.86,7,15.4,16.58,21.14,5.23,3.14,10.34,5.39,15.29,7.56,5.74,2.53,11.17,4.91,15.89,8.4,3.36,2.48,6.52,5.76,8.25,8.57,1.07,1.74,1.55,3.58,2.31,6.69.45,1.86.96,3.96,1.73,6.24,2.59,7.7,6.46,14.7,10.21,21.47,2.38,4.29,4.62,8.35,6.41,12.34,1.72,3.85,1.39,10.26,1.08,16.47-.19,3.64-.38,7.4-.22,11.14.86,20.17,17.56,26.53,27.54,30.33,1.39.53,2.7,1.03,3.97,1.54,3.72,1.52,4.88,3.6,7.7,9.41,2.08,4.29,4.68,9.64,9.41,14.61,5.66,5.94,11.95,7.63,16.54,8.86,1.46.39,2.84.76,4.08,1.23,1.85.69,3.71,1.38,5.57,2.07,5.05,1.87,10.28,3.81,15.21,5.85,1.88.78,3.66,1.43,5.38,2.05,3.2,1.17,5.97,2.17,8.2,3.61,3.56,2.29,7.03,5.4,10.69,8.69,2.2,1.98,4.48,4.02,6.89,5.99,2.1,1.71,4.24,3.27,6.31,4.77,7.72,5.61,11.13,8.53,11.29,12.89.74,20.28,7.36,34.22,19.15,40.33,4.88,2.53,9.6,3.56,13.77,4.48,5.93,1.3,8.16,1.97,9.94,4.42,6.06,8.34,9.01,21.58,11.62,33.27.38,1.73.76,3.42,1.14,5.08.93,4.04,1.03,8.56,1.14,13.35.16,6.79.33,14.49,2.94,22.44,1.07,3.27,2.7,5.98,4,8.16.73,1.22,1.42,2.37,1.76,3.2,1.4,3.42,1.3,7.55,1.19,12.78-.03,1.49-.07,3.03-.07,4.64,0,1.89.11,3.82.22,5.68.16,2.76.4,6.9-.12,8.57-.69,1.22-4.17,3.6-6.05,4.89-1.24.85-2.51,1.72-3.75,2.66-1.18.89-2.68,1.77-4.27,2.7-2.15,1.26-4.59,2.68-7.04,4.58-3.36,2.61-6.04,5.54-8.4,8.12-1.4,1.53-2.71,2.97-4.01,4.17l-.13.12c-12.52,11.57-25.46,23.54-37.02,37.53-1.27,1.54-2.52,3.06-3.74,4.57-9.15,11.2-17.05,20.87-28.78,27.26-10.97,5.97-19.46,14.52-27.67,22.78-7.97,8.03-15.5,15.61-24.38,19.82-6.59,3.12-12.6,4.05-20.17,4.54-12.08.78-20.47,6.19-27.87,10.97-.77.49-1.54,1-2.33,1.5-5.53,3.52-10.82,7.3-15.95,10.97-16.33,11.68-30.44,21.77-48.65,22.14-.23,0-.46,0-.7,0-3.46,0-6.97-.51-10.69-1.06-4.16-.61-8.45-1.23-13.13-1.23-5.63,0-10.76.94-15.69,2.86-9.78,3.82-22.71,8.53-35.94,10.95-10.69,1.96-21.81,2.22-31.27,2.22-3.42,0-6.94-.04-10.34-.07-3.47-.04-7.05-.08-10.6-.08-11.49,0-25.06.38-38.62,3.19-2.44.51-4.86.99-7.27,1.47-10.52,2.09-21.4,4.25-32.38,8.21-1.99.72-3.88,1.49-5.68,2.33-1.05-.96-2.3-1.88-3.8-2.64-2.29-1.16-4.87-1.75-7.67-1.75-5.61,0-11.24,2.36-15.77,4.26-.97.41-2.07.87-2.54,1.02-4.45,1.49-8.38,3.35-12.18,5.14-2.54,1.2-4.93,2.33-7.31,3.27l-.1.04c-2.79,1.1-6.6,2.6-8.74,2.6-.16,0-.23-.01-.23-.01-.95-.15-1.41-.31-2.18-.56-1.42-.47-3.56-1.19-6.52-1.19-2.19,0-4.39.38-7.15,1.23-9.69,3-18.76,7.26-27.53,11.39-3.9,1.83-7.58,3.56-11.29,5.18-4.07,1.77-6.89,2.89-10.17,3.74.03-.22.06-.44.09-.65.25-1.76.49-3.43.81-5.01,3.12-15.36-4.58-23.22-10.77-29.53-.56-.57-1.14-1.16-1.73-1.78-.86-.89-1.29-1.34-1.32-5.24,0-.52.02-1.19.05-1.9.17-4.01.44-10.71-4.58-15.94-2.16-2.25-6.04-4.93-12.29-4.93-.28,0-.57,0-.87.02-3.1.12-5.62,1.22-7.64,2.1-.29.13-.68.3-.98.42-.79.07-1.83.14-2.9.14s-1.61-.07-1.72-.08c-.16-.03-.32-.07-.48-.1-2.75-3.34-6.51-5.16-11.23-5.42l-8.84-.48-3.07,8.3c-.86,2.32-2.75,4.98-4.76,7.79-1.29,1.81-2.63,3.69-3.9,5.74-1.64,2.66-4,5.26-6.5,8.01-2.93,3.23-6.25,6.89-9.05,11.36-.49.79-1,1.6-1.51,2.42-5.57,8.97-13.21,21.26-21.58,23.1-.69.15-1.31.23-1.83.23-.87,0-1.04-.17-1.36-.51-.76-.8-3.33-4.27-4.37-15.38-.76-8.13-.36-16.89-.1-22.68.03-.68.06-1.33.09-1.93.48-11.44,3.23-23.01,6.15-35.25,5.04-21.2,10.25-43.12,3.91-66.38-3.14-11.51-2.97-20.18.53-26.5.83-1.5,1.82-3.19,2.86-4.98,6.01-10.29,13.5-23.09,13.08-35.81l-.31-9.35-9.14-1.98c-1.62-.35-3.19-.51-4.65-.58.8-3.86,1.19-9.21-2.5-13.98-1.67-2.16-5.55-5.78-12.76-5.78-1.49,0-3.08.15-4.85.44-5.8.98-10.96,3.17-15.51,5.1-3.13,1.33-5.98,2.54-8.57,3.19-.01-.51-.03-1.03-.06-1.58-.96-18.05-11.06-20.72-21.35-21.87-.02-.35-.03-.77-.02-1.28.02-.89.07-1.84.12-2.85.33-5.98,1.03-18.44-12.02-24.91-4-1.98-7.79-2.98-11.13-3.86-3.96-1.04-6.29-1.7-8.14-3.21-1.53-1.25-3.08-3.52-4.73-5.92-2.68-3.92-6.02-8.8-11.38-12.34-5.21-3.44-12.34-5.11-21.81-5.11-4.06,0-7.79.32-10.21.59-6.63.74-12.96,2.35-19.09,3.91-7.19,1.83-13.99,3.56-20.1,3.56-4.81,0-8.79-1.09-12.53-3.44-2.12-1.33-4.1-3.3-5.89-5.78,5.83-.73,11.61-1.75,17.32-3.06,11.47-.59,21.51-4.77,29.86-12.43l2.27-2.08.99-2.91c3.89-11.51.16-22.69-3.12-32.56-1.76-5.29-3.58-10.76-3.45-14.48.16-4.54,1.96-8.46,4.23-13.42,2.47-5.39,5.28-11.51,6.17-19.27,1.66-14.46-4.21-26.34-9.38-36.82-1.46-2.96-2.89-5.86-4.09-8.68,7.64-1.05,17.49-2.89,24.72-12.48,5.19-6.88,6.22-14.04,6.97-19.26q.81-5.65,2.93-6.52c12.7-5.25,27.98-7.62,42.76-9.91,4.9-.76,9.97-1.55,14.86-2.43,4.1-.74,8.1-1.57,11.97-2.37,9.92-2.06,19.3-4,28.35-4,6.32,0,12.11.97,17.67,2.95,9.14,4.53,18.23,9.42,27.05,14.53l1.74,1.01,1.98.39c3.53.69,7.08,1.04,10.55,1.04,8.9,0,17.56-2.27,25.72-6.75l.12-.06.12-.07c4.1-2.37,8.22-3.52,12.59-3.52.37,0,.75,0,1.13.03,1.36,1.06,2.58,2.26,3.68,3.62l2.69,3.31,4.18.87c1.47.31,2.98.46,4.49.46,20.53,0,34.81-27.7,37.68-37.79l.27-.96.11-.99c.68-6,1.79-11.99,3.32-17.85,4.87-6.67,6.32-14.41,4.06-22.08l-3.55-12.09-7.96,2.76-1.15-1.65c.21-3.36,1.38-8.83,3.24-13.53.89-2.26,1.08-2.73,10.27-2.84,1.68-.02,3.41-.04,5.23-.13,10.72-.52,18.87-6.01,25.41-10.42,2.8-1.89,5.44-3.67,7.91-4.84.66-.31,1.19-.37,3.76-.41,1.78-.03,4.01-.06,6.63-.41,3.27-.43,5.69-1.58,7.17-2.3.09,0,.21,0,.34,0h.61c.26,0,.53,0,.79,0,1.22,0,2.86-.04,4.72-.34,10.95-1.78,20.86-7.87,28.82-12.76.95-.58,1.88-1.15,2.79-1.71,1.99-1.21,4.77-1.87,7.99-2.65,5.88-1.41,13.19-3.17,19.94-9.2,2.74-2.45,4.41-5.05,5.76-7.14.77-1.2,1.38-2.15,2-2.77.55-.56.9-.87,1.08-1.02.41-.11,1.16-.27,1.79-.4.78-.16,1.64-.35,2.62-.57,9.32-2.16,17.81-7.27,25.29-11.78,2.48-1.5,4.82-2.91,7.04-4.12,7.38-4.05,17-6.91,23.94-7.13,5.19-.16,10.12-1.01,14.89-1.83,4.66-.8,9.06-1.56,13.12-1.56h0M2230.27,39.25h0,0M2155.9,76.68h0,0M2318.79,0c-9.6,0-19.13,3.1-28.38,3.39-9.23.28-20.74,3.88-29.34,8.6-9.14,5.01-19.09,12.38-29.26,14.74-5.74,1.33-7.13,1-11.34,5.27-3.1,3.15-4.26,6.76-7.2,9.39-7.93,7.09-17.86,5.51-26.15,10.53-8.06,4.88-17.58,11.31-27.31,12.89-.97.16-1.89.18-2.8.18-.47,0-.93,0-1.4,0-1.04,0-2.09.04-3.22.27-1.75.36-3.37,1.81-5.86,2.14-5.52.73-9.17-.41-13.98,1.88-9.59,4.57-17.53,13.57-28.75,14.12-10.53.51-21.31-1.5-26.07,10.54-2.45,6.18-7.6,23.67-.45,28.34-.05-.54-.1-1.07-.15-1.61,3.41,4.91,5.58,6.09,7.35,6.09.83,0,1.57-.26,2.31-.51,1.37,4.65.21,9.03-3.48,13.15-2.04,7.24-3.48,14.59-4.32,22.06-2.49,8.75-14.37,29.08-26.14,29.08-.68,0-1.36-.07-2.03-.21-2.48-3.05-5.39-5.62-8.75-7.7-1.81-.26-3.61-.38-5.38-.38-6.48,0-12.69,1.71-18.6,5.14-6.4,3.51-13.05,5.27-19.94,5.27-2.71,0-5.46-.27-8.25-.82-9.28-5.38-18.72-10.44-28.34-15.19-7.68-2.84-15.09-3.9-22.4-3.9-14.08,0-27.8,3.92-42.45,6.56-19.55,3.52-41.56,5.41-60.07,13.06-14.34,5.93-6.78,18.9-14.89,29.64-7.47,9.89-20.03,6.29-30.07,10.74,2.11,18.56,18.71,33.69,16.48,53.1-1.44,12.51-10.01,20.58-10.47,33.63-.49,13.76,11.74,30.18,7.2,43.63-6.49,5.96-14.28,9.07-23.36,9.33-11.06,2.61-22.24,4.04-33.55,4.3,3.01,11.05,8.81,21.26,17.34,26.64,6.21,3.91,12.53,5.29,18.92,5.29,13.36,0,27.01-6.03,40.52-7.54,2.54-.28,5.66-.52,8.88-.52,5.63,0,11.55.71,15.19,3.12,6.4,4.23,9.01,12.55,15.15,17.55,6.63,5.4,14.32,4.95,21.52,8.51,7.1,3.52,5.35,9.81,5.23,16.79-.14,8.02,2.39,12.5,10.59,13.4s10.3,1.26,10.8,10.6c.41,7.59-1.5,13.21,7.81,13.45.19,0,.39,0,.58,0,10.45,0,19.57-7.26,29.73-8.97,1.11-.19,2.06-.28,2.85-.28,6.73,0,2.61,6.37,2.11,11.78-.71,7.6,3.93,7.92,8.98,7.92.47,0,.94,0,1.41,0,1.69,0,3.37.04,4.87.36.37,11.18-9.21,25.12-14.44,34.58-6.03,10.9-4.76,23.91-1.61,35.47,8.97,32.88-9.07,65.04-10.47,97.97-.6,14.26-3.26,53.01,17.73,53.01,1.36,0,2.82-.16,4.39-.51,14.29-3.13,23.53-19.45,30.69-30.87,4.51-7.2,11.18-12.29,15.6-19.45,3.16-5.13,7.58-9.93,9.7-15.67,3.94.21,2.69,3.09,5.29,4.76.62.4,1.19.5,1.76.5s1.15-.1,1.77-.1c.31,0,.64.03.99.1,1.15.26,2.69.35,4.26.35,1.82,0,3.68-.13,5.05-.3,2.12-.27,5.27-2.3,6.94-2.37.14,0,.27,0,.41,0,6.25,0,4.78,5.91,4.81,10.86.04,5.47.82,9.47,4.67,13.47,6.75,7.01,11.43,10.55,9.39,20.6-.83,4.07-1.11,7.98-1.98,12-1.08,4.93-3.52,11.59,3.76,11.59.06,0,.11,0,.17,0,2.37-.03,7.84-2.94,10.59-3.59,4.88-1.15,8.69-2.69,13.27-4.68,12.36-5.38,24.64-12.1,37.59-16.1,1.63-.5,2.72-.7,3.6-.7,2.01,0,2.97.99,6.81,1.6.69.11,1.4.16,2.11.16,4.45,0,9.31-1.93,13.24-3.48,6.43-2.54,12.31-5.98,18.9-8.19,3.2-1.07,10.08-4.66,14.49-4.66.86,0,1.62.14,2.25.45,2.99,1.51,3.42,5.76,6.59,7.31,3.5-2.56,7.53-4.66,12.38-6.41,12.52-4.51,25.04-6.52,38.02-9.21,11.99-2.49,24.08-2.94,36.19-2.94,6.98,0,13.97.15,20.94.15,11.2,0,22.36-.39,33.44-2.42,13.07-2.4,25.81-6.75,38.15-11.58,3.89-1.52,7.63-2.04,11.32-2.04,7.77,0,15.35,2.29,23.82,2.29.31,0,.63,0,.94,0,28.53-.59,48.09-20.54,70.79-34.98,8.03-5.11,14.56-9.97,24.53-10.61,8.78-.57,16.27-1.75,24.54-5.67,20.61-9.77,32.88-32.15,52.65-42.9,15.52-8.45,24.7-21,36.03-34.72,11.09-13.41,23.41-24.8,36.05-36.48,4.03-3.72,7.26-8.24,11.62-11.62,3.55-2.75,7.6-4.47,11.18-7.18,4.75-3.59,11.91-7.26,13.91-13.21,1.78-5.3.55-12.63.55-18.15,0-7.67.89-14.88-2.01-21.97-1.5-3.66-4.27-6.9-5.47-10.55-3.75-11.44-1.13-23.19-3.79-34.74-3.22-13.98-6.23-31-14.75-42.72-7.3-10.04-18.43-7.58-27.9-12.49-10.02-5.19-12.31-20.06-12.68-30.12-.49-13.34-12.83-19.05-22.01-26.53-6.21-5.06-11.91-11.12-18.67-15.47-4.86-3.13-10.17-4.46-15.48-6.66-6.96-2.89-14.13-5.43-21.15-8.07-6.07-2.28-11.42-2.17-16.16-7.14-8.85-9.29-7.91-21.41-21.27-26.86-10.88-4.44-23.45-7.19-24.05-21.27-.43-10.23,2.32-22.59-1.89-32-4.89-10.93-12.42-21.47-16.2-32.73-1.79-5.34-2.01-10.23-5.2-15.41-2.77-4.5-7.12-8.82-11.34-11.93-10.15-7.49-21.46-10.19-32.13-16.59-10.55-6.33-11.02-18.45-18.4-27.4-4.49-5.45-11.54-5.75-16.26-10.48-4.2-4.2-4.84-11-8.54-15.6-3.35-4.16-6.74-5.37-10.26-5.37-4.95,0-10.18,2.4-15.93,2.4-.83,0-1.68-.05-2.53-.17-9.36-1.26-16.66-9.16-26.6-10.87C2323.01.15,2320.9,0,2318.79,0h0Z"/>
      </g>
    </a>
    <a
      xlink:href="/univers/lieux/villes/auberac"
      class="ville-link"
      data-region-id="Haut-Val">
      <title>Aubérac</title>
      <g id="Aubérac" class="city">
        <path class="cls-2" d="M2573.37,338.26c-13.25,0-24.03-10.78-24.03-24.03s10.78-24.03,24.03-24.03,24.03,10.78,24.03,24.03-10.78,24.03-24.03,24.03Z"/>
        <path class="cls-3" d="M2573.37,297.2c9.39,0,17.03,7.64,17.03,17.03s-7.64,17.03-17.03,17.03-17.03-7.64-17.03-17.03,7.64-17.03,17.03-17.03M2573.37,283.2c-17.14,0-31.03,13.89-31.03,31.03s13.89,31.03,31.03,31.03,31.03-13.89,31.03-31.03-13.89-31.03-31.03-31.03h0Z"/>
      </g>
    </a>
    <a
      xlink:href="/univers/lieux/regions/roselle"
      class="region-link"
    >
      <title>Roselle</title>
      <g id="Roselle" class="region">
        <path class="cls-1" d="M1800.71,2535.56c-.42,0-.82-.03-1.16-.08-.44-.07-.77-.13-1-.19-.15-.48-.33-1.14-.48-1.71-.16-.59-.33-1.24-.53-1.95-3.58-12.52-4.48-26.12-4.6-35.33-.03-2.27.99-5.81,1.98-9.23,1.9-6.59,4.05-14.07,1.44-20.52-4.98-12.33-20.61-14.68-29.95-16.08l-1.37-.21c-3.93-.6-7.11-.88-10.03-.88-5.71,0-10.44,1.09-14.47,3.33-13.77,7.66-25.3,19.08-36.45,30.12-4.19,4.15-8.15,8.07-12.2,11.78-.53.48-1.07,1.01-1.64,1.56-1.54,1.49-4.11,3.97-5.48,4.16-.14.02-.27.04-.39.05-.63-.97-1.58-2.4-3.15-3.86-3.81-3.54-8.21-4.6-11.75-5.46-2.53-.61-4.53-1.09-5.82-2.23-1.74-1.54-2.34-3.51-3.17-6.6-1.32-4.91-3.52-13.12-15.81-14.01-12.82-.93-26.42-2.65-39.02-8.9-.86-.42-1.71-.85-2.56-1.28-8.33-4.18-16.94-8.5-27.16-8.5-2.49,0-5.01.26-7.49.79-1,.21-2.4.4-3.89.6-3.63.49-7.74,1.03-10.85,2.5-1.96.92-3.34,2.31-4.44,3.42-.37.37-.93.93-1.15,1.08-1.31.8-2.58,1.41-3.93,2.05-2.41,1.15-5.14,2.44-8.13,4.95-7.2,6.04-11.24,7.92-20.6,9.6-5.67,1.02-10.6,1.51-15.05,1.51-5.63,0-10.75-.78-15.66-2.38-13.28-4.33-8.75-27.92-7.05-35.05,1.89-7.91,1.84-9.38-.54-15.74l-.34-.91c-.73-1.96-2.14-3.01-3.15-3.67-.24-2.56.21-8.14.4-10.42.13-1.64.24-2.94.27-3.92.27-9.87,1.58-17.21,4.01-22.44,1.22-2.64,2.33-4.24,4.74-6.84,1.18-1.27,2.44-2.74,3.77-4.3,3.94-4.6,9.34-10.9,13.44-12.54,1.32-.53,1.89-.57,2.03-.57.25,0,1.02.39,1.83.81,1.07.55,2.4,1.23,4.15,1.89,5.11,1.91,8.49,2.37,12.77,2.95.9.12,1.86.25,2.92.4,10.39,1.51,18.92,7.36,25.35,17.37.61.95,1.23,1.95,1.87,2.98,3.93,6.33,8.82,14.21,16.14,18.39,4.23,2.41,8.43,3.07,12.13,3.66,4.52.71,7.18,1.24,9.39,3.68.77.85,1.41,2.3,2.1,3.83.78,1.74,1.65,3.71,3.02,5.56,4.04,5.49,10.54,8.28,19.31,8.28,1.63,0,3.39-.09,5.39-.27,14.64-1.34,34.29-9.4,47.79-19.6,14.94-11.29,8.26-24.55,2.9-35.21l-.95-1.89c-.47-.95-.94-1.84-1.39-2.71-1.8-3.46-3.1-5.95-3.47-9.42-.34-3.25-.12-6.72.12-10.4.2-3.09.41-6.29.29-9.55-.21-5.6-2.29-10.52-4.12-14.85-3.62-8.56-3.51-9.59,1.28-12.26,5.01-2.79,10.48-4.77,16.28-6.86,5.25-1.9,10.68-3.86,15.88-6.52l.3-.15c5.01-2.53,10.39-5.7,12.27-10.01,1.1-2.52,1.46-5.3,1.8-7.99.22-1.76.46-3.58.86-4.69,3.09-8.58,5.3-14.22,9.93-20.14.94-1.2,1.88-2.35,2.81-3.48,3.64-4.42,7.4-9,9.75-15.39,1-2.72,1.47-5.48,1.88-7.92.43-2.55.84-4.96,1.77-6.86,2.94-6.01,13.85-12.36,21.22-12.36.72,0,1.38.06,1.96.19,4.88,1.07,9.91,1.63,14.79,2.17,5.07.56,10.31,1.14,15.2,2.3,8.95,2.12,14.7,4.43,21.25,11.22,1.19,1.24,2.29,2.5,3.36,3.71,4.27,4.87,8.68,9.92,17.62,11.85,2.73.59,5.74.86,9.49.86,2.74,0,5.56-.15,8.27-.29,2.72-.14,5.3-.28,7.8-.28,10.06,0,14.46,2.31,16.79,8.83,5.96,16.64,19.4,17.04,30.19,17.36,3.45.1,7.02.21,10.5.73,7.49,1.13,11.62,5.55,16.84,11.14,3.54,3.79,7.55,8.08,12.98,11.38,8.78,5.34,20.71,7.33,30.3,8.93l2.3.39c11.28,1.91,22.83,2.82,34,3.69,4.31.34,8.77.69,13.11,1.09,3.5.32,6.63.48,9.58.48,22.6,0,34.95-9.88,36.71-29.36.99-10.94-2.36-19.1-5.59-27-2.15-5.26-4.19-10.23-4.86-15.93-.24-2.06,0-4.55.24-7.2.42-4.42.88-9.42-.76-14.26-2.37-6.94-7.49-9.26-11.23-10.96-1.39-.63-2.7-1.22-3.8-2-4.43-3.09-3.46-6.84,4.95-19.1,2.49-3.64,4.85-7.08,6.26-10.41,1.45-3.42,2.88-7.88,1.04-12.14-2-4.61-6.57-6.28-11-7.89-10.74-3.92-11.62-4.24-12.31-13.5-.63-8.5-4.26-13.8-7.9-17.3,2.17-7.16,4.7-14.21,7.35-21.61l.97-2.71c3.5-9.77,9.97-17.93,16.82-26.57,8.28-10.44,16.84-21.23,20.19-35.41,2.44-10.36,4.71-24.01.47-37.76-1.67-5.43-3.34-10.86-5-16.28-2.93-9.56-5.96-19.45-9-29.18-4.38-14.02-7.94-28.23-11.22-41.58-.59-2.39-.85-4.87-1.14-7.5-.32-2.99-.66-6.07-1.48-9.29-.28-1.09-.58-2.1-.86-3.05-1.05-3.58-1.45-4.92-.27-7.82,1.85-4.54,4.49-6.48,8.83-6.48,12.24,0,31.28,14.98,38.75,23,1.49,1.6,2.75,3.41,4.08,5.32,1.17,1.69,2.39,3.44,3.87,5.2,2.15,2.57,4.5,3.99,6.39,5.13.88.53,1.63.99,2.33,1.52,1.86,1.42,3.37,3.13,4.96,4.94,2.47,2.81,5.28,6,9.7,8.38,3.07,1.65,10.88,5.49,16.99,5.49,5.25,0,7.6-2.8,8.54-4.46,2.74-4.88-.14-10.69-2.55-14.63-1.14-1.88-2.31-3.71-3.47-5.53-5.78-9.08-10.76-16.92-11.26-27.02-.52-10.49,3.18-19.03,8.06-29.1.98-2.02,2.02-4.03,3.12-6.15,5.41-10.47,11.55-22.33,9.77-35.7-2.38-17.83-12.01-35.63-20.51-51.33-1.03-1.91-2.05-3.78-3.02-5.61-12.52-23.46-22.53-48.93-32.22-73.55l-.07-.17c-7.97-20.28-15.81-42.34-19.11-66.3-.26-1.91-.59-3.91-.9-5.84-1.14-7.03-2.31-14.31-1.27-20.48.28-1.64,1.4-3.39,2.69-5.42.88-1.37,1.78-2.79,2.57-4.4,3.29-6.74,3.96-12.7,2.15-19.31-.78-2.83-1.24-5.84-1.73-9.02-.56-3.63-1.14-7.38-2.24-11.22-1.07-3.73-2.54-6.51-3.97-9.19-.88-1.65-1.7-3.2-2.44-4.98-1.28-3.12-1.89-6.69-2.53-10.46-.46-2.7-.93-5.49-1.68-8.29-1.67-6.23-3.59-12.45-5.45-18.47-1.56-5.06-3.18-10.29-4.61-15.43-4.48-16.03-7.43-32.68-10.28-48.79-1.19-6.74-2.43-13.71-3.76-20.58-1.61-8.29-1.21-18.04-.83-27.46.18-4.36.36-8.86.34-13.13-.1-18.23,3.51-37.4,10.18-53.98,4.11-10.23,11.57-23.55,17.28-28.1,8.7-6.92,16.67-12.12,24.37-15.9,8.87-4.35,16.64-6.16,26.49-8.45l1.95-.45c1.94-.45,3.68-.99,5.36-1.5,2.83-.87,5.27-1.62,7.97-1.75.61-.03,1.19-.04,1.75-.04s1.06,0,1.56.02c.55,0,1.08.02,1.61.02,1.78,0,3.95-.08,6.47-.67.73-.17,1.62-.36,2.6-.56,8.65-1.81,16.74-3.85,20.7-8.81,4.67-5.85,5.11-14.52,5.04-20.54-.04-3.51.18-7.31.42-11.35.53-9.09,1.08-18.49-1.2-27.01-.8-2.99-1.15-5.84-1.52-8.85-.28-2.25-.56-4.58-1.05-7.17-.57-3.03-1.54-5.93-2.47-8.73-1.06-3.17-2.06-6.17-2.33-8.89-.25-2.55-.54-5.06-.82-7.56-1.23-10.91-2.39-21.21-.43-32.29,5.05-28.55.17-57.14-4.54-84.79-1.7-9.97-3.46-20.28-4.67-30.24-.9-7.39-2.75-14.68-4.54-21.73-1.37-5.41-2.67-10.52-3.58-15.68-1.11-6.33-2.42-12.69-3.68-18.84-.8-3.89-1.62-7.91-2.39-11.86-4.98-25.77-4.77-55.24.6-82.97,1.67-8.64,4.14-16.92,7.37-24.8,1.87,13.31,7.27,38.4,22.32,52.03,2.03,1.83,4.82,3.09,7.51,4.31,1.5.68,3.2,1.44,4.06,2.04,1.07.74,2.08,1.51,3.14,2.32,2.67,2.03,5.43,4.13,9.19,5.78,8.6,3.77,18.39,6.13,26.86,6.46,4.43.17,8.4.26,12.14.26,3.99,0,7.73-.1,11.14-.3,3.11-.18,5.72-.77,8.02-1.29,1.92-.43,3.58-.81,5-.81,1.09,0,2.49.19,4.57,1.58,2.5,1.67,4.2,4.12,6.17,6.96,1.9,2.73,4.05,5.82,7.17,8.36,4.58,3.72,10.44,4.15,14.44,4.15,1.77,0,3.5-.09,5.03-.18.7-.04,1.38-.07,2.03-.1,2.72-.11,5.28-.64,7.54-1.11,2.06-.43,4-.83,5.64-.83s2.68.36,3.84,1.24c3.72,2.82,5.05,6.93,6.74,12.14,1.08,3.34,2.2,6.79,4.09,10.21,4.34,7.81,11.25,13.23,17.93,18.46,5.38,4.22,10.47,8.2,13.92,13.15,3.19,4.57,4.85,10.4,6.61,16.57.96,3.38,1.96,6.87,3.25,10.25,1.17,3.07,2.58,6.16,3.95,9.15,3.01,6.59,6.12,13.41,6.51,19.78.42,6.85-2.38,13.55-5.33,20.65-.84,2.02-1.71,4.11-2.51,6.21l-.34.9c-4,10.51-3.29,13.3,5.02,19.88,4.12,3.26,5.68,5.44,5.75,8.02.04,1.24-.8,4.2-1.47,6.57-1.86,6.61-4.18,14.84.38,20.62,1.61,2.04,3.86,2.68,8.39,3.82.61.15,1.43.36,1.75.46.33.14.71.29,1.11.45,1.35.54,4.51,1.81,5.35,2.5,1.57,1.31,2.16,3.31,3.06,6.74.26,1,.53,2.03.86,3.09.19.6.37,1.3.57,2.04,1.03,3.82,2.3,8.57,5.5,11.62,2.7,2.58,6.13,3.67,9.17,4.63,1.55.49,3.15,1,4.03,1.55,4.86,3.05,8.61,6.59,10.29,9.72,2.14,3.97,1.46,8.1.18,14.5-.61,3.02-1.23,6.15-1.41,9.46-.04.77-.1,1.62-.16,2.51-.37,5.64-.83,12.66.97,17.94,2.27,6.67,7.17,9.36,11.1,11.52.71.39,1.44.79,2.18,1.23,2.01,1.19,4.11,2.29,6.13,3.35,7.42,3.9,13.84,7.28,15.71,13.67,1.48,5.07,1.11,10.99.71,17.25-.5,7.9-1.02,16.07,2.14,23.71,3.28,7.93,9.85,13.02,15.66,17.52,5.78,4.48,10.77,8.34,12.28,14.09,2.54,9.7.32,19.57-2.04,30.01-1.14,5.06-2.32,10.29-2.93,15.55-1.19,10.22,3.42,24.5,8.21,33.45,2.21,4.13,5.3,7.16,8.02,9.83,1.12,1.1,2.18,2.15,3.16,3.23,1.36,1.51,2.24,3.2,3.26,5.16.92,1.77,1.96,3.78,3.48,5.83,4.73,6.43,11.42,9.51,17.31,12.24,1.91.88,3.72,1.72,5.42,2.64,6.61,3.56,11.38,7.73,17.39,13.22,1.45,1.32,2.88,2.73,4.4,4.22,4.47,4.39,9.08,8.94,14.81,12.03,8.92,4.82,14.44,8.33,15.78,16.42.17,1.03.34,2.04.51,3.05,1.06,6.22,1.97,11.6,1.95,17.89v1.52c-.02,7.01-.04,13.06-1.74,19.5-2.17,8.21-3.94,15.73-3.64,24.45.32,9.26,4.12,13.32,7.47,16.9,1.5,1.6,2.91,3.12,4.33,5.3,2.22,3.43,3,8.06,3.82,12.96,1.11,6.58,2.36,14.05,7.58,19.99,5.76,6.55,13.22,10.25,20.44,13.82,3.46,1.72,6.74,3.34,9.66,5.2,3.92,2.5,7.83,5.01,11.74,7.51,5.38,3.46,10.95,7.03,16.48,10.52,4.19,2.65,8.99,4.73,13.63,6.75,6.87,2.98,13.97,6.07,18.08,10.67,4.27,4.77,5.85,11.18,7.52,17.97,1.28,5.2,2.61,10.58,5.21,15.72,2.72,5.39,6.02,10.37,9.21,15.19,1.96,2.95,3.8,5.74,5.52,8.61,4.51,7.52,6.63,19.55,8.18,28.33.31,1.78.67,3.64,1.04,5.56,1.82,9.44,3.88,20.14,1.83,28.11-1.15,4.45-3.22,10.56-5.08,13.43-2.08,3.23-4.83,5.96-7.74,8.86-3.78,3.76-7.69,7.65-10.71,13.07l-.3.53c-7.36,13.2-14.97,26.85-20.77,41.42-1.72,4.3-4.31,10.8-8.09,13.78-1.58,1.25-2.28,1.31-4.59,1.52-1.37.12-3.06.28-5.11.75-17.97,4.2-21.85,22.37-23.31,29.21l-.12.56c-3.24,15.16-6.91,32.34-7.28,48.21-.23,9.8-.02,19.71.19,29.3.25,11.35.51,23.09,0,34.49-.5,11.16-2.31,18.66-10.13,23.99-.98.67-2.09,1.29-3.26,1.94-3.33,1.86-7.48,4.17-10.23,8.83-4.64,7.86-3.98,19.15-3.5,27.4.05.86.1,1.69.14,2.47.25,4.95,1.78,9.24,3.13,13.03,1.29,3.62,2.4,6.74,2.43,10.05.02,2.71-.55,5.18-1.23,8.04-.64,2.72-1.36,5.79-1.54,9.3-.26,5.15-.1,10.29.06,15.27.22,6.95.43,13.51-.44,19.95-1.14,8.43-4.89,11.26-11.11,15.94-2.69,2.03-5.74,4.32-8.79,7.33-8.67,8.55-8.81,17.99-8.94,26.32-.05,3.26-.1,6.34-.58,9.47-.22,1.41-.42,2.79-.62,4.14-1.36,9.28-2.43,16.6-8.08,23.64-1.19,1.48-2.71,2.92-4.32,4.44-2.42,2.28-4.92,4.65-6.94,7.69-4.02,6.08-6,13.52-7.75,20.08-.27,1.03-.54,2.04-.82,3.02-1.92,6.96-4.22,13.5-6.66,20.42-.91,2.59-1.83,5.19-2.72,7.83-.51,1.48-.96,2.92-1.39,4.31-2.08,6.65-3.33,10.67-8.65,13.8-1.55.92-3.35,1.74-5.26,2.6-4.92,2.24-10.49,4.77-14.55,10.19-3.61,4.83-5.16,10.77-6.53,16.01-.63,2.43-1.23,4.72-1.96,6.69-2.5,6.71-6.32,12.41-12.03,17.96-7.39,7.18-12.84,10.25-18.2,10.25-2.49,0-5.03-.67-7.75-2.04-2.38-1.19-4.6-2.8-6.96-4.49-1.6-1.15-3.26-2.35-5.04-3.47-7.93-4.98-15.25-6.9-23.8-8.24-5.64-.89-11.27-1.16-16.71-1.42-5.03-.24-9.77-.47-14.51-1.14-8.06-1.15-16.6-2.32-24.53-2.9-.92-.07-1.86-.1-2.8-.1-4.35,0-8.21.71-11.94,1.4-3.11.57-6.04,1.12-9.11,1.22-.46.01-.9.02-1.35.02-13.03,0-20.17-5.98-26.35-22.06-3.08-8.01-7.91-14.56-12.58-20.88-4.35-5.89-8.46-11.46-10.91-17.83-2.01-5.23-2.7-11.11-3.43-17.33-.92-7.89-1.88-16.04-5.65-23.73-5.15-10.48-15.1-20.05-22.69-25.51-5.67-4.07-11.8-6.06-18.74-6.06-5.01,0-9.85.97-14.98,2-2.15.43-4.38.88-6.64,1.25-5.1.84-9.82,1.25-14.41,1.25s-9.26-.41-14.26-1.25c-1.56-.26-3.61-.85-5.78-1.47-4.25-1.22-9.07-2.6-13.66-2.6-1.82,0-3.53.22-5.07.66-3.82,1.09-8.52,4.73-16.24,12.55l-.56.56c-9.15,9.1-16.68,18.52-22.37,27.98-8.95,14.88-.13,22.95,5.71,28.29,3.18,2.91,6.18,5.65,7.69,9.4,2.75,6.82-5.73,12.37-20.3,19.12-1.43.66-2.75,1.27-3.91,1.84-.85.41-1.71.83-2.58,1.25-8,3.84-17.06,8.19-22.41,16.76-3.9,6.25-6.08,14.17-8,21.15-.7,2.53-1.35,4.92-2.05,7.12-.54,1.68-1,3.31-1.44,4.89-1.37,4.85-2.56,9.04-5.32,12.76-4.73,6.37-11.37,13.79-19.71,22.05-2.08,2.06-4.32,4.02-6.7,6.11-9.82,8.6-20.96,18.35-19.34,35.59.22,2.36.62,3.76.88,4.69.04.15.08.28.12.42-.01.15-.07.63-.34,1.74-.86,3.48-2.99,5.78-7.85,8.48-.56.31-2.06.9-3.39,1.43-6.8,2.68-12.19,5.09-14.44,9.6-2.87,5.75-.83,10.66.53,13.9.4.97.79,1.88,1.05,2.77,2.63,8.82-3.74,15.8-12.33,24.01-9.04,8.63-19.72,10.49-32.74,12.03-4.73.56-9.09,1.58-13.31,2.57-5.4,1.27-10.49,2.46-15.58,2.46-3.32,0-6.43-.51-9.52-1.57-6.63-2.27-9.78-5.05-11.61-10.23-.34-.95-.57-2.04-.82-3.2-.52-2.44-1.17-5.49-3.13-8.47l-1.57-2.39-2.84-.29c-.61-.06-1.24-.09-1.87-.09-6.53,0-12.58,3.29-18.44,6.47-4.24,2.3-8.62,4.68-12.12,5.06-2.35.25-4.62.29-7.02.32-4.9.07-9.96.14-15.82,2.12-10.92,3.69-20.85,9.75-30.45,15.6-6.38,3.89-12.41,7.57-18.67,10.58-3.82,1.84-11.77,5.66-16.97,5.66Z"/>
        <path class="cls-3" d="M2147.53,838.95c3.74,11.97,9.72,24.35,19.28,33,2.73,2.47,6.1,3.99,9.07,5.33,1.05.47,2.63,1.19,3.12,1.5.96.66,1.91,1.39,2.92,2.15,2.81,2.14,6,4.56,10.41,6.5,9.26,4.07,19.85,6.6,29.04,6.96,4.51.18,8.55.26,12.38.26,4.1,0,7.96-.1,11.48-.31,3.6-.21,6.59-.88,8.99-1.43,1.51-.34,2.93-.66,3.68-.66.13,0,.39,0,1.24.56,1.55,1.04,2.89,2.96,4.58,5.39,2.02,2.91,4.53,6.52,8.31,9.59,6.06,4.92,13.3,5.49,18.22,5.49,1.93,0,3.75-.1,5.35-.18.67-.04,1.32-.07,1.94-.1,3.22-.13,6.04-.72,8.53-1.24,1.75-.36,3.4-.71,4.41-.71.09,0,.15,0,.2,0,0,0,.01.01.02.02,2.11,1.6,3.09,4.4,4.65,9.21,1.11,3.45,2.38,7.35,4.56,11.27,4.93,8.87,12.66,14.93,19.48,20.27,5.02,3.93,9.76,7.65,12.7,11.86,2.62,3.74,4.14,9.11,5.76,14.78,1,3.5,2.03,7.12,3.41,10.74,1.24,3.25,2.69,6.43,4.1,9.5,2.91,6.37,5.66,12.39,5.98,17.65.33,5.46-2.09,11.26-4.88,17.98-.86,2.06-1.75,4.2-2.58,6.39l-.34.89c-4.58,12.06-4.23,17.9,6.91,26.72,2.76,2.18,3.34,3.14,3.46,3.42-.15,1.01-.79,3.29-1.22,4.84-2.11,7.51-5.01,17.79,1.45,25.97,2.94,3.72,6.97,4.74,11.63,5.92.41.1.94.24,1.26.32.26.11.53.22.82.33.95.38,2.77,1.12,3.74,1.61.34.7.79,2.41,1.1,3.58.27,1.01.57,2.15.93,3.34.14.45.32,1.12.51,1.82,1.16,4.3,2.74,10.19,7.15,14.4,3.7,3.54,8.21,4.97,11.49,6.01.9.29,2.25.71,2.71.95,4.61,2.9,7.23,5.75,8.14,7.45,1.17,2.17.63,5.24-.42,10.47-.62,3.08-1.32,6.57-1.51,10.32-.04.75-.09,1.56-.15,2.43-.41,6.17-.91,13.85,1.27,20.27,3.02,8.88,9.56,12.47,13.9,14.85.71.39,1.38.76,2.03,1.14,2.14,1.26,4.3,2.39,6.39,3.49,7.21,3.79,11.66,6.36,12.74,10.04,1.19,4.05.84,9.46.48,15.19-.52,8.18-1.1,17.45,2.59,26.38,3.89,9.4,11.45,15.26,17.53,19.97,4.91,3.81,9.16,7.09,10.15,10.86,2.17,8.29.1,17.46-2.08,27.17-1.17,5.21-2.39,10.6-3.04,16.18-1.54,13.21,4.86,29.46,8.89,36.98,2.64,4.94,6.22,8.45,9.1,11.28,1.06,1.04,2.05,2.02,2.91,2.97.81.9,1.41,2.02,2.4,3.92.97,1.87,2.18,4.2,3.97,6.62,5.65,7.67,13.4,11.25,19.63,14.13,1.83.84,3.55,1.64,5.09,2.47,6.02,3.24,10.31,7,16.18,12.37,1.37,1.25,2.76,2.62,4.24,4.08,4.54,4.47,9.69,9.53,16.17,13.03,9.45,5.1,11.94,7.48,12.71,12.12.17,1.04.35,2.06.52,3.07,1.01,5.95,1.89,11.09,1.87,16.87v1.52c-.02,6.87-.03,12.29-1.54,18-2.29,8.69-4.16,16.65-3.83,26.19.4,11.51,5.42,16.87,9.08,20.79,1.37,1.46,2.55,2.72,3.67,4.46,1.54,2.39,2.22,6.42,2.94,10.7,1.18,7.01,2.65,15.73,8.99,22.95,6.54,7.44,14.9,11.59,22.28,15.24,3.32,1.64,6.45,3.19,9.1,4.88,3.92,2.5,7.83,5,11.73,7.51,5.39,3.46,10.96,7.04,16.5,10.54,4.58,2.9,9.59,5.07,14.44,7.18,6.28,2.73,12.77,5.55,16.01,9.17,3.27,3.65,4.61,9.1,6.17,15.41,1.3,5.27,2.77,11.24,5.68,16.99,2.88,5.7,6.28,10.84,9.57,15.8,1.92,2.89,3.73,5.63,5.38,8.38,3.94,6.57,6.03,18.43,7.42,26.28.33,1.84.68,3.69,1.06,5.65,1.7,8.82,3.63,18.82,1.91,25.48-1.2,4.66-3.09,9.78-4.31,11.67-1.73,2.68-4.14,5.08-6.93,7.86-3.89,3.87-8.29,8.25-11.72,14.4l-.28.5c-7.46,13.38-15.17,27.21-21.12,42.15-1.3,3.25-3.71,9.31-6.23,11.29-.07.05-.13.1-.17.13-.31.04-.84.09-1.24.13-1.47.13-3.48.31-5.94.89-21.67,5.07-26.29,26.69-27.81,33.8l-.12.56c-3.29,15.42-7.02,32.89-7.41,49.32-.24,9.93-.02,19.92.19,29.57.25,11.26.5,22.9,0,34.1-.49,11.07-2.32,15.76-7.52,19.3-.76.52-1.75,1.07-2.8,1.66-3.76,2.09-8.9,4.96-12.48,11.02-5.56,9.43-4.85,21.78-4.32,30.79.05.84.1,1.66.14,2.43.29,5.83,2.05,10.77,3.47,14.74,1.11,3.11,2.06,5.79,2.08,8.1.02,1.99-.46,4.03-1.07,6.61-.7,2.96-1.49,6.32-1.69,10.36-.27,5.4-.1,10.67.06,15.76.21,6.69.42,13.01-.39,18.96-.8,5.95-2.97,7.58-8.77,11.95-2.84,2.14-6.06,4.56-9.4,7.86-10.41,10.27-10.59,21.96-10.72,30.5-.05,3.05-.09,5.92-.51,8.64-.22,1.43-.43,2.83-.63,4.2-1.32,9.02-2.19,14.99-6.82,20.75-.93,1.16-2.31,2.46-3.76,3.83-2.54,2.4-5.42,5.12-7.82,8.74-4.56,6.9-6.68,14.84-8.55,21.84-.27,1.01-.53,2-.8,2.97-1.87,6.76-4.14,13.2-6.54,20.02-.9,2.56-1.83,5.21-2.74,7.88-.54,1.58-1,3.04-1.44,4.46-2.18,6.97-2.93,8.63-5.97,10.43-1.27.75-2.93,1.51-4.69,2.31-5.3,2.41-11.89,5.41-16.87,12.06-4.31,5.77-6.02,12.31-7.53,18.09-.59,2.27-1.15,4.42-1.78,6.1-2.18,5.84-5.55,10.85-10.59,15.75-6.08,5.91-10.41,8.55-14.02,8.55-1.54,0-3.19-.46-5.06-1.4-1.95-.98-3.99-2.45-6.14-4-1.68-1.21-3.42-2.46-5.36-3.68-9.31-5.85-18.02-7.82-26.05-9.09-5.96-.94-11.75-1.22-17.36-1.49-4.88-.23-9.49-.46-13.96-1.09-8.16-1.16-16.81-2.34-24.93-2.94-1.06-.08-2.15-.12-3.24-.12-4.9,0-9.22.8-13.03,1.5-2.88.53-5.6,1.04-8.21,1.12-.39.01-.78.02-1.16.02-9.12,0-14.83-2.82-20.75-18.21-3.37-8.77-8.67-15.96-13.35-22.3-4.1-5.56-7.98-10.81-10.14-16.42-1.74-4.52-2.38-10.04-3.07-15.87-.94-8-2-17.07-6.22-25.68-5.63-11.48-16.39-21.85-24.58-27.74-6.73-4.83-14-7.18-22.24-7.18-5.61,0-10.97,1.07-16.15,2.11-2.1.42-4.28.86-6.44,1.22-4.77.79-9.17,1.17-13.43,1.17s-8.6-.38-13.27-1.17c-1.23-.21-3.21-.77-5.13-1.32-4.63-1.33-9.88-2.83-15.31-2.83-2.38,0-4.64.3-6.72.89-4.95,1.42-10.24,5.37-18.86,14.1-.22.22-.39.4-.52.53-9.5,9.45-17.33,19.25-23.28,29.14-11.49,19.08.87,30.38,6.8,35.81,2.78,2.54,5.18,4.73,6.18,7.22.07.18.11.31.13.38-.17.37-1.09,1.96-4.81,4.45-3.78,2.53-8.45,4.69-12.58,6.6-1.43.66-2.78,1.29-4.03,1.9-.83.41-1.68.82-2.54,1.23-8.3,3.98-18.63,8.94-24.9,19-4.36,7-6.66,15.36-8.69,22.74-.68,2.47-1.32,4.81-1.99,6.89-.56,1.77-1.04,3.45-1.5,5.08-1.26,4.46-2.26,7.98-4.36,10.81-4.49,6.04-11.1,13.43-19.12,21.37-1.94,1.93-4.12,3.83-6.43,5.85-9.82,8.6-23.27,20.37-21.36,40.66.2,2.09.5,3.58.81,4.78,0,.02,0,.04-.01.05-.25.99-.55,2.23-4.88,4.65-.46.22-1.77.74-2.73,1.12-6.3,2.48-14.15,5.57-17.61,12.5-4.1,8.21-1.2,15.16.36,18.89.34.82.66,1.59.84,2.17,1.37,4.6-1.14,8.8-10.73,17.96-7.71,7.36-17.01,8.96-29.3,10.41-5.07.6-9.6,1.66-13.98,2.69-5.27,1.24-9.82,2.31-14.21,2.31-2.68,0-5.09-.4-7.57-1.25-5.43-1.86-6.83-3.53-7.9-6.56-.21-.58-.39-1.45-.6-2.45-.59-2.78-1.41-6.58-3.98-10.51l-3.13-4.77-5.68-.58c-.81-.08-1.65-.12-2.48-.12-8.05,0-15.09,3.83-21.3,7.2-3.55,1.93-7.57,4.12-9.9,4.37-2.08.22-4.21.25-6.46.29-5.11.07-10.91.15-17.65,2.44-11.55,3.91-21.77,10.14-31.65,16.17-6.25,3.81-12.16,7.41-18.14,10.29-2.37,1.14-7.95,3.82-11.99,4.74-3.22-11.68-4.05-24.35-4.16-33.01-.02-1.38,1-4.91,1.74-7.49,2.06-7.15,4.63-16.06,1.24-24.43-6.27-15.5-24.71-18.28-34.62-19.77l-1.35-.2c-4.24-.65-7.71-.95-10.94-.95-6.76,0-12.44,1.34-17.38,4.08-14.49,8.06-26.31,19.77-37.75,31.1-4.15,4.11-8.07,7.99-12.03,11.62-.56.52-1.15,1.08-1.76,1.67-.16.15-.33.32-.51.5-.08-.08-.16-.16-.25-.23-4.96-4.61-10.66-5.99-14.43-6.9-1.11-.27-2.76-.67-3.31-.95-.42-.45-.78-1.73-1.28-3.6-1.38-5.16-4.63-17.24-21.17-18.44-12.21-.89-25.11-2.5-36.79-8.29-.85-.42-1.69-.84-2.53-1.26-8.53-4.28-18.21-9.14-29.86-9.14-2.91,0-5.85.31-8.73.92-.77.16-2.13.34-3.44.52-4.06.54-8.66,1.16-12.61,3.02-2.92,1.37-4.86,3.32-6.14,4.61-.14.14-.3.3-.43.43-.92.53-1.88.99-2.97,1.51-2.6,1.24-5.84,2.77-9.41,5.77-6.43,5.39-9.42,6.79-17.81,8.29-5.32.95-9.9,1.42-13.99,1.42-4.99,0-9.5-.68-13.8-2.08-1.15-.38-3.86-1.26-4.77-8.29-.92-7.07.67-15.35,1.7-19.66,2.16-9.03,2.05-11.73-.76-19.23l-.34-.9c-.72-1.92-1.78-3.37-2.84-4.46.06-2.34.31-5.43.44-7.04.14-1.73.25-3.1.29-4.24.25-9.04,1.38-15.61,3.45-20.08.94-2.03,1.73-3.16,3.7-5.29,1.26-1.36,2.55-2.87,3.92-4.47,2.54-2.97,7.66-8.94,10.54-10.59,1.08.55,2.48,1.23,4.25,1.89,5.75,2.15,9.6,2.67,14.07,3.27.88.12,1.82.25,2.86.4,8.72,1.27,15.64,6.07,21.16,14.68.59.93,1.2,1.9,1.82,2.9,4.29,6.91,9.62,15.51,18.27,20.44,5.18,2.96,10.16,3.74,14.17,4.37,4.05.64,5.09.94,5.82,1.72.26.39.76,1.49,1.12,2.31.85,1.92,1.92,4.3,3.66,6.67,5.23,7.11,13.36,10.72,24.14,10.72,1.81,0,3.75-.1,5.94-.3,18.36-1.68,38.77-11.66,50.86-20.79,18.93-14.31,9.99-32.08,4.64-42.69-.31-.62-.62-1.24-.94-1.86-.49-.98-.97-1.91-1.44-2.8-1.79-3.43-2.59-5.04-2.82-7.27-.29-2.74-.08-5.97.14-9.39.21-3.24.43-6.6.29-10.17-.25-6.7-2.66-12.39-4.59-16.96-.56-1.33-1.33-3.14-1.75-4.44.13-.08.26-.16.42-.24,4.59-2.55,9.84-4.45,15.41-6.47,5.42-1.96,11.03-3.99,16.56-6.81l.28-.14c6.26-3.16,12.42-6.92,15.06-12.96,1.45-3.31,1.87-6.67,2.25-9.63.15-1.14.36-2.86.55-3.41,2.89-8.02,4.94-13.26,9.01-18.49.88-1.12,1.77-2.21,2.72-3.36,3.77-4.58,8.04-9.78,10.75-17.13,1.2-3.25,1.71-6.3,2.17-8.99.36-2.11.7-4.1,1.25-5.23.66-1.34,2.96-3.73,6.47-5.81,3.98-2.36,7.53-3.19,9.35-3.19.41,0,.63.04.68.05,5.18,1.14,10.38,1.71,15.41,2.27,5.12.57,9.95,1.1,14.48,2.17,9.03,2.13,13.31,4.36,18.31,9.55,1.09,1.13,2.1,2.28,3.16,3.5,4.45,5.08,9.99,11.41,20.87,13.76,3.15.68,6.57,1,10.75,1,2.9,0,5.8-.15,8.59-.3,2.64-.14,5.14-.27,7.48-.27,9.4,0,10.17,2.14,11.14,4.85,7.35,20.49,24.38,21,35.66,21.33,3.42.1,6.66.2,9.78.67,5.19.78,8.14,3.73,13.35,9.3,3.8,4.07,8.11,8.68,14.24,12.41,9.77,5.94,22.34,8.03,32.44,9.72.78.13,1.54.26,2.29.38,11.55,1.96,23.24,2.87,34.55,3.76,4.29.34,8.73.68,13.02,1.08,3.68.34,6.99.5,10.13.5,34.41,0,41.51-21.82,42.68-34.82,1.12-12.39-2.67-21.65-6.02-29.81-2.08-5.08-3.88-9.47-4.46-14.36-.17-1.43.05-3.72.25-5.93.45-4.77,1-10.7-1.06-16.75-3.2-9.4-10.23-12.58-14.43-14.49-1.12-.51-2.1-.95-2.75-1.38.78-2.71,4.49-8.12,6.36-10.86,2.67-3.89,5.18-7.57,6.84-11.45,1.77-4.17,3.81-10.45,1.02-16.88-3.02-6.97-9.63-9.38-14.45-11.14-2.59-.94-6.44-2.35-7.56-3.15-.16-.41-.57-1.73-.83-5.15-.53-7.14-2.88-13.21-7.14-18.36,1.89-5.94,4.03-11.89,6.25-18.09l.97-2.7c3.17-8.84,9.34-16.62,15.87-24.86,8.69-10.95,17.67-22.28,21.33-37.76,2.42-10.23,5.08-25.61.37-40.9-1.67-5.43-3.34-10.86-5-16.29-2.93-9.56-5.96-19.45-9-29.2-4.33-13.86-7.87-27.97-11.12-41.23-.49-2-.74-4.29-1-6.71-.33-3.05-.7-6.5-1.64-10.14-.31-1.22-.63-2.3-.91-3.25q-.86-2.91-.47-3.86c1.12-2.74,1.89-2.74,3.28-2.74,8.98,0,26.35,12.49,34.36,21.09,1.2,1.29,2.29,2.85,3.54,4.65,1.19,1.72,2.55,3.66,4.2,5.64,2.79,3.33,5.74,5.11,7.89,6.41.73.44,1.35.82,1.79,1.15,1.39,1.06,2.64,2.49,4.1,4.14,2.67,3.04,5.99,6.81,11.37,9.7,4.31,2.32,12.62,6.21,19.83,6.21,6.07,0,11.08-2.74,13.77-7.52,4.77-8.5-.82-17.68-2.66-20.69-1.18-1.94-2.38-3.81-3.53-5.63-5.54-8.71-9.91-15.59-10.33-24.1-.45-9.09,2.81-16.59,7.47-26.18.94-1.95,1.97-3.92,3.05-6.01,5.82-11.25,12.42-24.01,10.39-39.25-2.52-18.93-12.44-37.24-21.18-53.39-1.03-1.9-2.03-3.76-3-5.58-12.35-23.15-22.3-48.46-31.93-72.92l-.07-.17c-7.84-19.93-15.53-41.59-18.75-64.92-.27-1.98-.6-4.01-.92-5.98-1.06-6.55-2.15-13.33-1.28-18.49.15-.58,1.17-2.17,1.84-3.23.92-1.44,1.97-3.08,2.9-4.99,3.93-8.04,4.74-15.52,2.54-23.53-.69-2.51-1.13-5.35-1.59-8.36-.56-3.63-1.2-7.75-2.4-11.95-1.24-4.34-2.94-7.54-4.44-10.36-.84-1.58-1.56-2.94-2.18-4.45-1.03-2.5-1.58-5.75-2.16-9.19-.48-2.84-.98-5.77-1.81-8.85-1.7-6.33-3.64-12.61-5.51-18.68-1.55-5.02-3.15-10.22-4.57-15.28-4.4-15.75-7.19-31.52-10.15-48.22-1.2-6.76-2.44-13.76-3.78-20.68-1.48-7.61-1.09-16.99-.72-26.07.18-4.43.37-9,.34-13.41-.1-17.47,3.36-35.84,9.74-51.71,4.35-10.83,11.28-22.33,15.45-25.64,8.36-6.65,15.97-11.63,23.27-15.21,8.25-4.05,15.74-5.79,25.22-8l1.94-.45c2.14-.5,4.06-1.09,5.76-1.61,2.54-.78,4.55-1.4,6.5-1.49.44-.02.91-.03,1.46-.03.51,0,.99,0,1.47.02.58,0,1.14.02,1.7.02,2,0,4.7-.09,7.84-.83.63-.15,1.48-.33,2.46-.53,9.76-2.05,18.95-4.42,24.16-10.94,5.87-7.35,6.44-17.43,6.35-24.36-.04-3.29.18-7,.41-10.92.53-9.12,1.14-19.46-1.4-28.92-.69-2.59-1-5.11-1.36-8.03-.28-2.24-.59-4.77-1.11-7.54-.65-3.43-1.73-6.67-2.68-9.52-.95-2.84-1.85-5.53-2.05-7.58-.26-2.61-.55-5.17-.82-7.64-1.23-10.92-2.3-20.35-.49-30.58,5.24-29.57.27-58.69-4.54-86.85-1.77-10.36-3.44-20.14-4.63-29.96-.94-7.77-2.84-15.25-4.68-22.48-1.35-5.3-2.62-10.3-3.48-15.24-1.13-6.42-2.44-12.82-3.72-19.01-.8-3.87-1.62-7.88-2.38-11.79-4.84-25.04-4.63-53.7.6-80.69.16-.82.33-1.64.5-2.46M1503.14,2363.19h0,0M2152.9,793.83c-8.54,13.63-14.46,28.8-17.65,45.3-5.34,27.59-5.95,57.58-.6,85.25,1.98,10.22,4.26,20.36,6.06,30.6,2.18,12.38,6.57,24.7,8.07,37.09,4.52,37.22,15.95,75.49,9.26,113.27-2.58,14.55-.2,27.41,1.19,41.48.6,6.07,3.75,12.16,4.88,18.14,1.11,5.93,1.14,10.76,2.68,16.46,3,11.17.44,25.32.58,36.88.06,5.13-.33,12.47-3.72,16.72-3.49,4.37-15.04,6.12-19.99,7.28-1.83.43-3.45.51-5.1.51-1.02,0-2.06-.03-3.18-.03-.65,0-1.32.01-2.03.04-5.26.25-9.34,2.22-14.41,3.4-10.76,2.51-19.62,4.41-29.72,9.36-9.05,4.44-17.57,10.31-25.46,16.59-7.49,5.96-15.42,21.39-19.11,30.55-7.08,17.61-10.72,37.39-10.61,56.25.08,13.3-1.93,28.68.6,41.7,4.54,23.35,7.71,46.79,14.15,69.84,3.17,11.33,7,22.5,10.05,33.84,1.72,6.4,1.92,13.31,4.46,19.48,2.08,5.06,4.68,8.27,6.18,13.53,1.93,6.74,2.17,13.64,3.96,20.17,1.52,5.54.69,10.11-1.75,15.09-1.84,3.76-5.05,7.11-5.78,11.45-1.53,9.04.93,19.33,2.14,28.14,3.27,23.72,10.7,45.38,19.47,67.67,9.87,25.11,19.86,50.53,32.57,74.35,8.72,16.34,20.36,36.05,22.88,54.91,1.85,13.89-6.46,26.33-12.34,38.44-5.12,10.56-9.24,20.06-8.65,32.01.68,13.92,8.6,23.91,15.6,35.38,4.56,7.48,2.98,9.97-.86,9.97s-9.67-2.37-14.15-4.78c-6.07-3.26-8.41-8.64-13.86-12.81-2.67-2.04-5.41-2.93-7.76-5.74-2.97-3.55-4.97-7.34-8.16-10.76-7.54-8.09-28.12-24.91-43.14-24.91-6.15,0-11.37,2.82-14.39,10.21-2.42,5.93-.57,9.05.87,14.63,1.42,5.52,1.22,11.09,2.6,16.73,3.48,14.16,6.97,28.01,11.32,41.94,4.73,15.15,9.31,30.28,13.99,45.45,3.5,11.37,2.1,23.26-.58,34.61-5.67,24.02-28.56,38.26-36.82,61.33-3.39,9.47-6.83,18.84-9.53,28.4,4.65,3.48,8.19,7.83,8.77,15.68.96,12.91,4.65,14.46,16.23,18.69,6.7,2.45,10.03,3.75,6.5,12.05-4.46,10.48-23.25,26.91-9.13,36.78,4.91,3.43,10.55,3.4,12.79,9.97,2.11,6.2-.52,13.77.24,20.23,1.81,15.34,11.92,25.22,10.44,41.68-1.72,19.13-15.22,23.9-30.73,23.9-2.96,0-5.99-.17-9.03-.45-15.49-1.43-31.31-2.11-46.66-4.72-9.46-1.6-22.03-3.38-30.49-8.52-12.24-7.44-16.48-20.98-32.04-23.33-15.37-2.32-29.82,2.86-35.93-14.18-3.9-10.88-12.71-12.81-22.44-12.81-5.3,0-10.88.57-16.08.57-2.89,0-5.67-.18-8.22-.73-8.94-1.93-11.96-7.68-17.93-13.86-7.3-7.56-14.02-10.5-24.19-12.9-10.01-2.36-20.49-2.39-30.07-4.49-1.02-.22-2.11-.33-3.25-.33-9.68,0-22.7,7.73-26.61,15.73-2.36,4.83-2.07,10.39-3.89,15.34-2.56,6.95-7.18,11.51-11.66,17.26-5.37,6.89-7.91,13.67-10.84,21.8-1.31,3.64-1.06,9.01-2.51,12.31-1.34,3.08-8.11,6.36-9.79,7.22-10.39,5.3-22.14,7.8-32.35,13.48-15.11,8.41-.74,19.43-.24,32.58.26,6.73-1.08,13.67-.38,20.36.59,5.62,2.96,9.16,5.45,14.17,5.62,11.28,11.41,20.86-.2,29.63-11.71,8.86-30.19,17.08-44.72,18.42-1.57.14-3.2.25-4.84.25-5.48,0-11.03-1.15-14.47-5.83-2.18-2.96-2.94-7.03-5.49-9.86-6.44-7.14-15.21-4.09-23-8.53-7.05-4.02-11.72-12.83-15.93-19.4-6.9-10.75-16.54-18.18-29.53-20.07-5.96-.87-8.98-.98-14.45-3.03-3.76-1.41-5.34-3.08-8.08-3.08-1.14,0-2.48.29-4.26,1-7.01,2.8-14.38,12.92-19.39,18.34-2.57,2.78-4.17,4.92-5.78,8.39-3.44,7.42-4.34,16.81-4.56,24.79-.09,3.36-1.56,14.35-.07,17.65.59,1.3,2.67,1.92,2.93,2.6,2.2,5.92,2.42,5.82.67,13.16-3.16,13.22-5.65,36.71,11.03,42.15,5.86,1.91,11.67,2.67,17.52,2.67,5.33,0,10.68-.63,16.11-1.61,10.4-1.87,15.39-4.19,23.4-10.91,3.92-3.29,7.26-3.97,11.35-6.49,1.77-1.09,3.15-3.3,5-4.17,3.4-1.6,9.76-1.88,13.42-2.65,2.15-.45,4.23-.66,6.25-.66,9.76,0,18.17,4.75,27.05,9.15,13.01,6.45,26.92,8.47,41.25,9.51,13.46.98,7.54,12.14,15.43,19.12,4.94,4.37,12.29,2.78,17.46,7.59,3.03,2.82,2.6,5.5,6.65,5.5.52,0,1.1-.04,1.78-.14,4.01-.55,7.55-4.66,10.36-7.24,15.03-13.75,29.5-31.06,47.51-41.08,3.45-1.92,7.45-2.57,11.55-2.57,3.04,0,6.14.36,9.12.81,8.54,1.31,22.76,2.95,26.66,12.61,3.06,7.58-3.96,19.73-3.86,27.59.16,12.03,1.52,25.32,4.83,36.9,1.58,5.54,1.31,7.26,6.86,8.12.67.1,1.36.15,2.08.15,6.39,0,14.51-3.81,19.57-6.25,16.25-7.81,31.26-20.09,48.44-25.9,7.61-2.58,14-1.34,21.55-2.16,9.84-1.06,20.37-11.5,29.92-11.5.42,0,.84.02,1.26.06,2.13,3.25,2.05,6.82,3.31,10.38,2.69,7.61,7.74,11.3,15.32,13.9,4,1.37,7.78,1.9,11.46,1.9,9.96,0,19.13-3.85,29.6-5.08,13.42-1.58,25.74-3.67,36.18-13.65,8.8-8.4,17.65-17.63,13.94-30.07-1.34-4.49-4.2-7.79-1.96-12.28,1.97-3.94,12.22-6.7,15.38-8.46,5.17-2.88,9.27-6.28,10.75-12.28,1.23-4.96-.04-3.95-.5-8.85-1.67-17.8,13.43-26.1,24.29-36.87,6.85-6.78,14.55-15,20.3-22.74,4.44-5.97,5.47-12.51,7.66-19.41,2.71-8.5,4.7-19.35,9.42-26.92,4.96-7.95,14.53-11.88,22.54-15.8,10.23-5.01,33.25-13.44,27.14-28.59-5.53-13.71-23.95-15.54-13.83-32.35,5.84-9.7,13.46-18.86,21.46-26.82,1.63-1.62,9.97-10.39,14.21-11.6,1.06-.3,2.21-.43,3.42-.43,5.96,0,13.37,3.13,18.44,3.99,5.31.89,10.29,1.34,15.26,1.34s10.04-.45,15.39-1.34c7.57-1.25,14.22-3.17,20.64-3.17,5.1,0,10.07,1.21,15.24,4.93,7.83,5.63,16.54,14.59,20.81,23.28,6.16,12.55,3.91,27.71,8.86,40.57,5.5,14.3,17.93,24.25,23.49,38.71,6.03,15.7,14.23,25.9,31.95,25.9.51,0,1.02,0,1.54-.02,7.37-.24,13.58-2.62,20.86-2.62.77,0,1.56.03,2.35.09,7.85.58,16.29,1.74,24.12,2.86,10.4,1.48,20.86.93,31.14,2.55,8.26,1.3,14.68,3.09,21.54,7.4,4.21,2.64,7.94,5.95,12.5,8.24,3.7,1.86,7.17,2.67,10.45,2.67,8.35,0,15.51-5.27,22.39-11.95,6.03-5.86,10.53-12.27,13.47-20.17,2.49-6.67,3.28-15.33,7.67-21.2,4.54-6.07,12.15-7.73,18.05-11.22,8.69-5.13,9.6-12.37,12.66-21.34,3.28-9.61,6.77-18.74,9.49-28.58,1.92-6.96,3.72-15.24,7.79-21.39,2.91-4.39,7.62-7.57,10.93-11.69,7.58-9.44,8.13-19.01,9.94-30.61,1.88-12.01-2-22.77,7.81-32.45,9.61-9.48,19.57-11.42,21.64-26.74,1.59-11.83-.18-23.85.42-35.72.32-6.38,2.83-11.27,2.77-17.69-.08-8.38-5.14-14.94-5.57-23.33-.39-7.78-1.6-19.51,2.54-26.52,2.71-4.59,7.56-6.04,11.71-8.86,10.02-6.84,12.21-16.64,12.74-28.68.94-21.25-.7-42.65-.19-63.92.37-15.5,4.03-32.48,7.27-47.66,2.42-11.33,6.72-21.79,18.8-24.62,5.02-1.17,7.62.08,12.04-3.4,4.88-3.84,7.74-10.73,9.95-16.28,5.74-14.39,13.19-27.71,20.74-41.25,4.86-8.73,13.01-13.47,18.25-21.6,2.46-3.82,4.72-10.82,5.85-15.19,2.84-11.03-.84-25.22-2.78-36.21-1.71-9.68-3.96-22.05-8.94-30.37-4.68-7.82-10.38-15.21-14.53-23.43-5.69-11.25-4.8-25.14-13.61-34.99-8.01-8.94-22.89-12.11-32.98-18.49-9.45-5.97-18.77-12.02-28.2-18.03-9.33-5.94-21.25-9.3-28.81-17.92-7.63-8.69-4.64-22.61-10.87-32.25-5.16-7.98-10.47-8.68-10.84-19.15-.28-8.01,1.41-15.02,3.44-22.71,2.03-7.69,1.91-14.69,1.94-22.54.03-7.89-1.31-14.5-2.55-21.94-1.82-10.95-9.58-15.72-18.85-20.72-6.78-3.66-12.27-10.15-18.01-15.4-6.05-5.53-11.26-10.13-18.59-14.08-7.24-3.9-15.61-6.16-20.75-13.15-2.83-3.85-3.79-7.77-7.11-11.46-3.56-3.95-7.77-7.07-10.34-11.88-4.12-7.7-8.58-21.03-7.54-29.92,1.82-15.63,9.07-31.51,4.81-47.78-3.83-14.61-22.54-18.7-28.19-32.37-4.98-12.05,1.13-27.48-2.64-40.36-3.24-11.05-15.15-14.96-24.56-20.5-4.67-2.75-8.81-4.12-10.65-9.51-1.67-4.92-.77-13.07-.5-18.2.49-9.2,5.28-18.27.51-27.12-2.62-4.86-7.83-9.09-12.38-11.95-3.53-2.22-9.26-2.59-12.24-5.44-2.5-2.39-3.49-7.89-4.48-11.09-1.41-4.55-1.88-9.38-5.81-12.66-1.8-1.51-5.92-3.02-8.12-3.93-1.12-.46-6.97-1.6-7.61-2.41-4.18-5.3,2.54-17.71,2.38-23.65-.15-5.47-3.75-9.18-8.03-12.56-6.45-5.1-6.19-4.98-2.8-13.95,3.6-9.51,8.86-18.9,8.22-29.35-.65-10.61-7.1-20.9-10.84-30.7-3.52-9.22-4.84-19.96-10.54-28.12-8.5-12.16-24.49-18.42-31.53-31.09-4.52-8.13-4.33-18.07-12.46-24.22-2.45-1.85-4.94-2.45-7.46-2.45-4.35,0-8.81,1.77-13.42,1.95-2.08.08-4.44.27-6.82.27-3.89,0-7.82-.51-10.66-2.81-5.41-4.39-7.47-11.43-13.79-15.65-2.92-1.95-5.45-2.59-7.9-2.59-4.14,0-8.07,1.8-13.36,2.11-3.52.2-7.15.29-10.79.29-4.01,0-8.03-.1-11.91-.25-8.09-.32-17.22-2.68-24.69-5.96-4.46-1.96-7.44-4.85-11.34-7.54-2.93-2.02-8.56-3.69-10.95-5.86-13.14-11.9-18.93-34.88-20.86-51.94-.64-5.63-.97-11.43-1.11-17.29h0Z"/>
      </g>
    </a>
    <a
      xlink:href="/univers/lieux/villes/meridielle"
      class="ville-link"
      data-region-id="Roselle">
      <title>Méridielle</title>
      <g id="Méridielle" class="city">
        <path class="cls-2" d="M2381.4,2308.4c-13.25,0-24.03-10.78-24.03-24.03s10.78-24.03,24.03-24.03,24.03,10.78,24.03,24.03-10.78,24.03-24.03,24.03Z"/>
        <path class="cls-3" d="M2381.4,2267.35c9.39,0,17.03,7.64,17.03,17.03s-7.64,17.03-17.03,17.03-17.03-7.64-17.03-17.03,7.64-17.03,17.03-17.03M2381.4,2253.35c-17.14,0-31.03,13.89-31.03,31.03s13.89,31.03,31.03,31.03,31.03-13.89,31.03-31.03-13.89-31.03-31.03-31.03h0Z"/>
      </g>
    </a>
    <a
      xlink:href="/univers/lieux/regions/veldore"
      class="region-link"
    >
      <title>Veldoré</title>
      <g id="Veldoré" class="region">
        <path class="cls-1" d="M798.97,1124.28c-1.32-1.02-2.69-2.07-4.25-2.83-5.79-2.84-11.27-3.17-15.96-3.27-15.64-.31-25.48-1.81-39.13-9.46-4.54-2.54-9.22-5.1-13.74-7.57-14.28-7.79-29.05-15.85-42.2-25.06-2.62-1.84-5.19-3.89-7.9-6.07-4.86-3.89-9.87-7.91-15.6-10.92l-3.16-1.96c-2.02-1.27-4.18-1.93-6.37-1.93-1.72,0-3.42.42-5.02,1.23-.44,0-.84.04-1.2.08-.66-.55-1.41-1.2-1.79-1.53-1.72-1.49-3.23-3.03-4.84-4.65-3.57-3.62-7.26-7.36-12.96-10.19-6.22-3.08-11.52-4.52-16.69-4.52-1.65,0-3.29.15-4.89.46-2.64.5-4.88,1.42-6.86,2.23-2.01.83-3.75,1.54-5.57,1.69-.36.03-.74.04-1.13.04-3.45,0-8.09-1.03-11.81-1.86l-1.36-.3c-5.27-1.48-10.65-2.79-16.01-3.89l-1.2-.25-1.2.24c-2.8.57-5.38,1.65-7.69,3.22-.92.21-1.93.32-3.07.32-3.21,0-6.88-.82-10.76-1.7-4.39-.99-8.94-2.01-13.57-2.01-.22,0-.44,0-.65,0-7.77.17-14.67,1.96-21.71,5.66-1.93,1.01-3.66,2.15-5.19,3.16-3.35,2.21-5.37,3.46-7.88,3.46-.22,0-.44,0-.66-.03-2.48-.2-4.56-1.82-7.74-4.44-2.06-1.69-4.39-3.61-7.18-5.07-4.76-2.49-9.71-3.75-14.72-3.75-1.69,0-3.43.14-5.16.42-3.42.56-6.39,1.58-9.27,2.58-3.47,1.2-6.47,2.23-9.65,2.23-3.47-.01-6.9-1.06-10.52-2.18-4.13-1.27-8.81-2.7-14.03-2.7-.35,0-.71,0-1.07.02-9.36.35-16.88,4.66-24.15,8.84-2.81,1.61-5.46,3.13-8.14,4.38-9.78,4.55-16.33,5.36-25.4,6.48-2.89.36-5.88.73-9.28,1.25-12.18,1.88-20.92,8.84-29.37,15.57-.79.63-1.59,1.27-2.39,1.9l-.25.2-.23.22c-13.31,13-27.25,25.7-41.43,37.77l-16.55,9.1c-1.22.27-2.31.4-3.23.4-2.5,0-3.5-.85-6.28-3.54-2.21-2.13-4.92-4.75-9.15-6.7-3.56-2.78-7.51-4.19-11.75-4.19s-8.29,1.33-12.59,3.95c-9.27,4.38-18.88,8.27-28.58,11.57-8.95-1.07-10.4-6.01-12.07-18.98-1.23-9.54-2.62-20.34-11.95-26.96-2.21-1.57-4.99-2.2-7.94-2.87-1.41-.32-3.74-.85-4.49-1.28-1.18-1.15-1.1-3.01-.29-7.82.81-4.8,1.81-10.77-1.81-16.13-5.05-7.46-13.32-7.72-19.37-7.91-1.91-.06-3.71-.12-5.21-.36-5.68-.92-5.8-1.52-6.96-7.23-.54-2.69-1.22-6.04-2.75-9.81-4.41-10.92-8.46-15.68-22.16-16.94-1.37-.13-2.82-.19-4.3-.19-4.39,0-8.61.55-12.69,1.08-3.8.49-7.38.96-10.85.96-5.02,0-8.91-.99-12.61-3.21-4.76-2.86-7.53-7.47-10.73-12.82-1.7-2.83-3.45-5.76-5.62-8.58-3.28-5.5-8.09-9.34-14.3-11.44l-1.1-.37-1.15.06c-.4.02-.79.03-1.18.03-.84,0-1.67-.05-2.48-.15,2.68-9.78,10.53-19,17.58-27.28.95-1.12,1.89-2.22,2.8-3.3,9.72-11.58,15.25-15.54,28.84-16.19,24.34-1.16,41.97-16.59,59.02-31.52,6.34-5.55,12.33-10.79,18.57-15.24,3.4-2.42,7.93-3.71,12.73-5.08,1.48-.42,2.95-.84,4.39-1.29,6.96-2.18,14.14-4.21,21.09-6.16,7.61-2.14,15.48-4.36,23.18-6.82,2.3-.73,4.58-1.49,6.84-2.24,8.21-2.72,15.97-5.28,24.25-6.8l16.69-2.64c8.63-.78,17.17-2.55,25.38-5.27l.92-.3.77-.57c5.56-4.13,8.52-9.85,8.55-16.54.08-17.35-19.7-36.23-26.64-41.47-2.58-1.95-5.29-3.34-7.68-4.55-1.74-.89-4.64-2.37-5.05-3.15h0s-.11-.95,1.2-3.45c6.06-11.59,16.65-23.46,26.35-29.52,9.9-6.19,20.69-10.84,30.38-13.1,24.87-5.79,33.74-29.69,33.97-49.89,3.58-1.17,10.38-1.93,13.66-2.3,3.98-.45,7.13-.8,9.36-1.5,13.52-4.21,26.85-12.23,39.63-23.83,12.27-11.14,24.46-26.08,35.24-43.2,8.21-13.04,11.98-26.4,15.64-39.32,1.42-5.02,2.88-10.2,4.6-15.35,3.51-10.53,10.33-21.2,16.58-21.2.29,0,.59.02.89.07,6.07.89,12.21,3.07,18.72,5.38,5.73,2.04,11.66,4.14,17.73,5.37.91.19,2.14.5,3.44.83,3.94,1.01,8.84,2.27,13.48,2.27,7.74,0,11.4-3.61,13.11-6.63,3.58-6.34,2.21-16.28,1.1-24.27-.28-2.03-.55-3.95-.65-5.31-.14-1.85-.66-4-1.22-6.27-.48-1.99-1.45-5.94-1.34-7.65.28-.13.78-.25,1.73-.25,1.17,0,2.52.18,3.96.37.89.12,1.76.23,2.6.31,7.38.71,14.92,1.7,22.21,2.67,9.76,1.29,19.85,2.63,29.91,3.32,2.12.15,4.29.22,6.44.22,9.67,0,18.43-1.46,27.7-3l2.46-.41c5.23-.86,9.8-1.27,14.39-1.27,5.64,0,11.36.61,18.55,1.98,6.61,1.26,13.41,1.83,19.98,2.37,11.06.92,21.51,1.79,30.92,5.68,3.85,1.59,7.34,3.43,10.73,5.21,7.24,3.82,14.08,7.42,22.34,7.42,5.75,0,11.48-1.77,17.53-5.43,5.04-3.04,8.11-4.13,14.31-5.05,13.06-1.94,23.06-5.04,34.51-10.69,10.14-5,18.32-7.54,28.24-10.02,15.97-3.98,29.44-10.24,41.62-16.4,6.94-3.51,11.2-4.67,18.99-5.15,2.65-.16,5.39-.47,8.03-.77,3.86-.43,7.86-.88,11.55-.88,2.57,0,4.75.21,6.68.65,7.62,1.72,9.92,4.87,14.85,12.46,9.34,14.38,18.05,17.3,32.92,18.12,12.34.68,17.2,2.23,23.57,10.62,1.04,1.38,2.04,2.75,3.01,4.1,5.97,8.29,12.74,17.69,26.75,17.69,1.75,0,3.59-.15,5.49-.45,15.1-2.35,35.21-10.91,43.67-24.17,1.89-2.96,2.68-6.42,3.38-9.46.21-.94.45-1.96.71-2.91.59.58,1.19,1.19,1.8,1.8,6.23,6.24,13.29,13.31,20.94,13.69l5.85.29.43-5.84c1.46-19.79-.73-41.23-5.86-57.35-4.05-12.71-10.17-21.82-19.38-33.25-2.04-2.53-3.97-5.14-6.02-7.89-4.81-6.48-9.79-13.18-16.16-18.8-7.17-6.32-15.26-11.3-23.07-16.11-3.43-2.11-6.75-4.16-9.95-6.27,6.22-2.14,16.52-3.63,26.94-3.63.63,0,1.2,0,1.71.02,9.67.25,19.13,1.89,29.15,3.64,6.26,1.09,12.72,2.21,19.21,2.96,12.66,1.45,23.25,3.21,34.33,5.7.94.21,1.86.41,2.75.61,11.92,2.64,18.49,4.1,24.97,13.35,9.73,13.91,19.37,23.28,37.36,27.07,5.99,1.26,8.17,3.42,12.96,8.16.93.92,1.91,1.89,3,2.93,7.42,7.09,14.63,10.39,22.69,10.39,7.77,0,15.28-3.2,22.24-6.66,5.59-2.78,10.62-7,15.49-11.09,7.44-6.24,14.46-12.14,22.24-12.14.42,0,.84.02,1.26.05,3.62.29,6.56.42,9.27.42,11.91,0,21.15-2.83,31.91-9.75,11.95-7.69,21.99-18.67,28.28-30.92,1.36-2.65,3.03-5.23,4.8-7.97,2.39-3.69,4.86-7.5,6.72-11.77,8.04-18.41-1.32-33.06-9.58-45.98-1.02-1.59-2.04-3.19-3.04-4.81l-.99-1.59c-4.48-7.2-8.02-12.89-6.87-20.42.15-.97.3-1.92.45-2.86,1.4-8.92,2.62-16.62.88-26.58l-.08-.44-.14-.42c-3.02-9.07-5.29-18.45-6.76-27.89-.59-9.71.81-19.24,4.17-28.35l.06-.17c.31-.92.63-1.9.96-2.93,1.6-4.96,3.59-11.14,6.14-14.26,3.42-4.19,13.56-8.86,20.28-11.95,2.88-1.32,5.36-2.47,7.31-3.52l.56-.3.48-.41c5.17-4.41,10.82-6.83,17.18-7.37,2.78,3.13,5.89,5.92,9.29,8.33,3.97,4.02,8.84,6.14,14.13,6.14,3.96,0,8.19-1.18,12.58-3.52,11.95-4.37,24.34-7.84,36.91-10.35,4.96,15.67,9.3,31.76,13.5,47.37l1.68,6.25c4.69,17.37,9.07,35.17,13.31,52.38,2.44,9.94,4.97,20.21,7.54,30.3,4.34,17.1,7.2,33.73,10.22,51.34,1.09,6.35,2.22,12.92,3.41,19.44,2.66,14.56,3.76,29.07,3.37,44.37-.44,16.97-5.33,28.02-13.62,41.37-10.81,17.41-31.66,24.5-50.62,29.14-22.26,5.45-44.69,19.62-68.58,43.33-4.65,4.61-8.83,9.54-12.87,14.3-3.42,4.03-6.96,8.21-10.68,12.04-4.62,4.77-7.37,5.49-14.43,5.49-.62,0-1.25,0-1.91-.01-.57,0-1.11-.02-1.63-.03-.86-.02-1.66-.03-2.41-.03-6.76,0-11.73,1.73-15.64,10.35-1.82,4.02-3.14,7.61-4.07,11.17l-2.2-1.29-2.99,5.36c-2.94,5.27.92,11.73,4.61,16.76,1.3,1.78,3.13,3.15,4.9,4.47.64.48,1.59,1.19,2.21,1.74-1.11.85-3.44,1.91-4.67,2.46-.77.35-1.5.68-2.15,1-2.07,1.02-4.12,2.01-6.16,2.99-8.65,4.14-17.59,8.42-25.75,15.02-9.38,7.58-17.52,16.55-25.4,25.22-10.62,11.7-20.66,22.76-33.38,30.57-20.14,12.37-40.25,15.15-64.26,15.52-9.51.14-17.04,2.59-22.38,7.26-3.7,3.24-5.98,7.37-8.18,11.36-1.45,2.64-2.83,5.13-4.45,7-9.39,10.89-23.95,11.77-40.61,11.77h-5.03c-24.25,0-44.51,1.05-64.62,6.18-26.04,6.66-50.94,13.96-69.24,29.96-5.55,4.86-11.4,10.61-12.65,16.46-1.59,7.4,3.67,15.44,7.51,21.31.41.63.79,1.21,1.13,1.74,5.3,8.38,14.9,17.38,29.33,27.54,4.18,2.94,8.06,4.2,11.82,5.41,1.94.63,3.78,1.22,5.7,2.06,2.2.96,4.31,1.96,6.34,2.93,5.94,2.84,11.56,5.52,18.99,6.94,3.15.6,6.35,1.11,9.74,1.64,11.93,1.88,24.26,3.82,32.62,9.88,8.04,5.83,16.43,15.16,22.56,21.97,1.79,1.99,3.39,4.15,5.09,6.45,2.09,2.82,4.25,5.73,6.91,8.51,2.84,2.97,5.84,5.8,8.74,8.53,3.56,3.35,6.92,6.52,10.02,9.93,1.33,1.47,2.48,3.09,3.71,4.81,1.89,2.66,4.02,5.67,7.08,8.32,1.85,1.6,3.71,2.96,5.51,4.27,2.29,1.67,4.46,3.25,6.27,5.12,2.23,2.3,4.24,4.65,6.19,6.92,3.81,4.44,7.74,9.04,13.26,13.17,2.37,1.77,7,7.08,7.85,9.2-.59.29-2.24.86-6.11.86-.95,0-1.83-.03-2.58-.06-5.36-.21-10.76-1.69-16.48-3.25-3.41-.93-6.94-1.89-10.57-2.61-4.14-.82-8.32-1.74-12.36-2.63-6.92-1.52-14.07-3.1-21.39-4.24-3.49-.54-6.8-.62-10.01-.7-2.75-.07-5.35-.13-7.91-.48-1.65-.22-3.24-.51-4.78-.79-3.09-.56-6.28-1.15-9.82-1.15-1.74,0-3.41.14-5.12.42-2.17.36-4.35.7-6.54,1.05-11.1,1.75-22.59,3.56-33.59,7.31-6.08,2.07-14.29,6.41-18.92,11.43-7.94,8.6-3.15,16.33-.29,20.94.59.95,1.14,1.84,1.61,2.71.38.72.64,1.48.96,2.45.48,1.42,1.07,3.19,2.23,5.16,2.96,4.97,6.82,8.01,10.55,10.95.55.43,1.1.86,1.65,1.31,2.05,1.65,4.07,3.35,6.2,5.14,6.67,5.62,13.57,11.42,21.53,15.68,3.78,2.02,7.62,3.89,11.33,5.69,12.64,6.15,24.59,11.95,32.47,23.03,2.56,3.6,5.48,6.78,8.31,9.87,3.36,3.66,6.53,7.13,8.94,11.05,2.02,3.29,3.67,6.42,4.9,9.13-6.34-2.92-12.68-5.64-18.39-7.9-10.89-4.31-27.04-9.61-42.15-10.37-1.64-.08-3.36-.12-5.25-.12-3.11,0-6.22.11-9.23.22-2.91.1-5.92.21-8.82.21-4.29,0-7.76-.24-10.92-.74-11.02-1.76-22.12-4.13-32.85-6.41-5.18-1.1-10.53-2.24-15.84-3.31-2.48-.5-4.93-.98-7.37-1.46-6.56-1.29-12.76-2.52-19.05-3.92-2.98-.66-6.29-.97-10.43-.97-3,0-6,.16-8.9.32-2.66.14-5.16.28-7.45.28s-4.47-.04-6.71-.07c-2.31-.04-4.62-.07-6.93-.07s-4.53.04-6.48.12c-12.68.54-24.11,5.76-34.57,11.33-20.74,11.03-39.2,25.5-57.05,39.48-6.41,5.02-13.04,10.21-19.64,15.14l-8.2,6.12Z"/>
        <path class="cls-3" d="M1415.32,148.89c2.36,2.39,4.92,4.58,7.64,6.55,5.05,4.94,11.26,7.55,18.02,7.55,4.83,0,9.88-1.35,15.01-4.02,9.87-3.59,20.04-6.55,30.37-8.85,4.26,13.9,8.08,28.08,11.8,41.88l1.7,6.3c4.67,17.3,9.04,35.06,13.27,52.23,2.45,9.95,4.98,20.24,7.55,30.37,4.28,16.87,7.12,33.38,10.12,50.87,1.09,6.37,2.22,12.95,3.42,19.52,2.59,14.14,3.66,28.25,3.27,43.14-.41,15.69-4.78,25.58-12.72,38.36-9.67,15.58-29.16,22.13-46.95,26.48-23.35,5.72-46.7,20.4-71.38,44.9-4.83,4.79-9.09,9.82-13.21,14.67-3.51,4.14-6.83,8.05-10.42,11.75-3.19,3.29-4.23,3.67-10.12,3.67-.59,0-1.2,0-1.83-.01-.56,0-1.09-.02-1.59-.03-.91-.02-1.75-.04-2.54-.04-7.32,0-15.56,1.65-21.1,13.87-.73,1.61-1.39,3.17-1.98,4.7l-1.07-.63-5.98,10.72c-5.19,9.31,2.22,19.42,5.01,23.23.36.5.75.96,1.14,1.4-1.59.78-3.21,1.55-4.78,2.3-8.96,4.29-18.22,8.73-26.92,15.76-9.74,7.87-18.04,17.01-26.07,25.86-10.33,11.38-20.09,22.12-32.08,29.49-18.98,11.66-38.19,14.28-61.21,14.63-10.97.17-19.8,3.11-26.24,8.75-4.49,3.94-7.14,8.74-9.48,12.97-1.3,2.35-2.53,4.58-3.74,5.98-7.75,8.98-20.37,9.69-36.07,9.69h-2.44s-1.14,0-1.14,0h-1.44c-24.71,0-45.41,1.08-66.12,6.38-26.78,6.84-52.41,14.38-71.7,31.26-6.61,5.78-12.95,12.17-14.57,19.72-2.11,9.85,4.19,19.48,8.36,25.85.39.6.76,1.16,1.08,1.67,5.73,9.06,15.86,18.62,30.94,29.23,4.92,3.46,9.44,4.92,13.42,6.21,1.8.58,3.5,1.13,5.15,1.85,2.11.92,4.16,1.9,6.15,2.85,6.03,2.88,12.26,5.85,20.45,7.42,3.24.62,6.65,1.16,9.94,1.67,11.23,1.77,22.84,3.6,30.03,8.81,7.53,5.45,15.67,14.51,21.61,21.12,1.6,1.78,3.12,3.83,4.74,6.01,2.1,2.83,4.48,6.03,7.39,9.08,2.95,3.09,6.01,5.97,8.96,8.75,3.47,3.27,6.75,6.36,9.69,9.6,1.09,1.2,2.1,2.62,3.26,4.26,2.08,2.93,4.44,6.25,8.03,9.37,2.04,1.77,4.1,3.27,5.91,4.59,2.17,1.58,4.04,2.94,5.5,4.44,2.11,2.17,3.97,4.34,5.94,6.64,3.63,4.23,7.37,8.6,12.51,12.74-3.32-.57-6.81-1.52-10.44-2.51-3.51-.96-7.14-1.95-10.99-2.7-4.07-.8-8.22-1.72-12.23-2.6-7.01-1.55-14.25-3.14-21.77-4.31-3.87-.6-7.54-.69-10.78-.77-2.58-.06-5.02-.13-7.25-.43-1.51-.21-2.96-.47-4.5-.75-3.35-.61-6.82-1.25-10.9-1.25-2.07,0-4.06.16-6.1.5-2.15.36-4.32.7-6.5,1.04-11.36,1.79-23.1,3.65-34.59,7.56-6.3,2.15-15.69,6.85-21.4,13.04-11.03,11.96-3.73,23.74-.98,28.17.53.86,1.04,1.67,1.41,2.37.15.28.34.86.57,1.53.54,1.61,1.27,3.81,2.77,6.32,3.52,5.92,8.02,9.47,11.99,12.6.53.42,1.07.84,1.6,1.27,2,1.61,3.99,3.29,6.1,5.06,6.91,5.81,14.05,11.82,22.56,16.38,3.88,2.08,7.77,3.97,11.54,5.8,12.45,6.05,23.21,11.28,30.2,21.11,2.78,3.9,5.82,7.23,8.77,10.44.88.96,1.74,1.9,2.58,2.83-.17-.07-.33-.13-.5-.2-11.31-4.48-28.13-9.98-44.06-10.79-1.74-.09-3.56-.13-5.55-.13-3.21,0-6.38.11-9.45.22-2.99.11-5.81.21-8.6.21-3.97,0-7.14-.21-9.98-.67-10.87-1.74-21.89-4.09-32.54-6.36-5.19-1.11-10.57-2.25-15.91-3.32-2.49-.5-4.95-.99-7.4-1.47-6.52-1.29-12.68-2.5-18.89-3.89-3.42-.76-7.14-1.12-11.73-1.12-3.16,0-6.25.17-9.23.33-2.57.14-5,.27-7.12.27s-4.33-.03-6.62-.07c-2.29-.04-4.66-.07-7.03-.07-2.49,0-4.69.04-6.73.13-13.91.59-26.58,6.41-37.14,12.03-21.21,11.28-39.88,25.91-57.94,40.06-6.38,5-12.98,10.17-19.53,15.06l-4.72,3.52c-.48-.29-.98-.56-1.5-.82-6.89-3.37-13.15-3.77-18.48-3.88-14.92-.3-23.71-1.63-36.32-8.69-4.57-2.56-9.26-5.12-13.8-7.6-14.14-7.72-28.76-15.69-41.64-24.71-2.46-1.72-4.95-3.72-7.59-5.83-5.03-4.03-10.22-8.19-16.37-11.45l-2.26-1.4-.69-.43c-3.02-1.89-6.24-2.85-9.56-2.85-1.6,0-3.18.23-4.71.68-1.31-1.18-2.55-2.44-3.86-3.77-3.73-3.79-7.97-8.08-14.56-11.35-7.08-3.51-13.23-5.14-19.36-5.14-2.02,0-4.04.19-6.01.56-3.24.61-5.89,1.7-8.02,2.58-1.55.64-2.89,1.19-3.78,1.26-.18.02-.4.02-.64.02-2.8,0-7.07-.95-10.51-1.71-.41-.09-.82-.18-1.21-.27-5.35-1.5-10.82-2.83-16.26-3.94l-2.4-.49-2.4.49c-3.12.63-6.03,1.77-8.7,3.39-.27.02-.56.03-.87.03-2.55,0-5.9-.75-9.45-1.55-4.49-1.01-9.59-2.15-14.88-2.15-.26,0-.52,0-.78,0-8.61.18-16.58,2.26-24.37,6.34-2.2,1.15-4.06,2.38-5.7,3.46-1.93,1.27-3.75,2.47-4.58,2.47-.05,0-.11,0-.17,0-.73-.06-3.04-1.96-4.42-3.09-2.28-1.88-4.87-4.01-8.21-5.75-5.62-2.94-11.51-4.43-17.5-4.43-2.01,0-4.07.17-6.12.5-3.93.64-7.29,1.8-10.27,2.83-3.08,1.06-5.51,1.91-7.73,1.9-2.53-.01-5.4-.89-8.73-1.91-4.53-1.39-9.67-2.96-15.79-2.96-.43,0-.86,0-1.29.02-10.84.4-19.38,5.31-26.91,9.63-2.69,1.55-5.24,3.01-7.69,4.15-8.92,4.15-14.76,4.87-23.6,5.96-2.8.35-5.97.74-9.46,1.28-13.76,2.12-23.55,9.92-32.2,16.8-.79.63-1.58,1.25-2.37,1.88l-.5.39-.46.44c-13.08,12.76-26.75,25.24-40.66,37.1l-9.76,5.36-5.43,2.99c-.58.09-.95.11-1.17.11-.03,0-.06,0-.09,0-.46-.34-1.36-1.2-2.03-1.85-2.31-2.23-5.39-5.2-10.19-7.54-4.46-3.3-9.57-5.03-14.88-5.03s-10.27,1.57-15.43,4.66c-8.53,4.02-17.35,7.61-26.26,10.7-2.25-.49-2.73-1.33-3.04-1.87-1.37-2.41-1.97-7.14-2.56-11.71-1.25-9.69-2.96-22.95-14.43-31.09-3.19-2.26-6.85-3.09-10.08-3.82-.17-.04-.35-.08-.53-.12.1-.73.23-1.5.34-2.13.88-5.23,2.21-13.14-2.75-20.49-6.76-9.99-17.65-10.34-24.15-10.54-1.71-.05-3.32-.1-4.43-.29-.68-.11-1.19-.22-1.58-.32-.16-.67-.33-1.5-.46-2.18-.56-2.78-1.33-6.58-3.06-10.87-5.05-12.52-10.64-19.15-27.17-20.67-1.58-.15-3.16-.22-4.85-.22-4.78,0-9.2.57-13.47,1.13-3.6.47-7,.91-10.07.91-3.92,0-6.77-.7-9.53-2.36-3.47-2.08-5.77-5.91-8.67-10.76-1.65-2.76-3.51-5.86-5.8-8.88-3.86-6.31-9.6-10.96-16.67-13.5,3.38-6.32,8.72-12.59,13.64-18.37.96-1.13,1.91-2.24,2.83-3.33,9.37-11.17,13.5-13.53,24.53-14.06,26.43-1.26,45.69-18.12,62.69-33,6.23-5.45,12.11-10.6,18.1-14.87,2.55-1.82,6.6-2.98,10.89-4.2,1.48-.42,3-.86,4.54-1.34,6.87-2.16,14.01-4.17,20.92-6.11,7.66-2.16,15.58-4.39,23.39-6.88,2.34-.75,4.66-1.51,6.9-2.26,7.98-2.64,15.53-5.14,23.38-6.58l16.42-2.6c9.02-.83,17.94-2.69,26.52-5.53l1.83-.61,1.55-1.15c7.04-5.22,10.94-12.8,10.97-21.34.09-19.9-20.92-40.16-29.02-46.28-3.01-2.27-6.09-3.85-8.57-5.11-.11-.06-.22-.11-.34-.17,5.66-10.04,15.02-20.34,23.29-25.51,9.36-5.85,19.5-10.23,28.57-12.34,24.82-5.78,36.7-28.46,38.4-50.92,2.99-.52,6.57-.92,8.55-1.15,4.3-.48,7.69-.87,10.47-1.73,14.36-4.47,28.45-12.92,41.88-25.11,12.67-11.5,25.22-26.87,36.28-44.45,8.67-13.77,12.56-27.55,16.33-40.89,1.4-4.95,2.85-10.07,4.52-15.08,3.53-10.6,9.05-16.85,10.91-17.09,5.49.8,11.36,2.89,17.58,5.1,5.93,2.11,12.07,4.29,18.55,5.6.76.15,1.92.45,3.14.77,4.04,1.04,9.57,2.46,14.97,2.46,11.19,0,16.29-6.06,18.34-9.68,4.58-8.1,3.05-19.16,1.82-28.05-.27-1.93-.52-3.76-.61-4.93-.17-2.31-.73-4.65-1.34-7.13.17.02.34.04.52.05,7.27.7,14.76,1.69,22,2.65,9.85,1.3,20.04,2.65,30.29,3.36,2.26.16,4.56.23,6.85.23,10.17,0,19.16-1.5,28.69-3.08l2.45-.41c4.89-.81,9.15-1.18,13.41-1.18,5.24,0,10.62.58,17.43,1.87,6.92,1.32,13.88,1.9,20.61,2.46,10.58.88,20.58,1.72,29.13,5.25,3.59,1.48,6.96,3.26,10.22,4.98,7.57,3.99,15.39,8.11,25.14,8.11,6.87,0,13.62-2.06,20.63-6.29,4.38-2.64,6.64-3.44,12.09-4.25,13.72-2.04,24.23-5.3,36.28-11.24,9.66-4.76,17.51-7.2,27.04-9.58,16.54-4.13,30.38-10.55,42.88-16.87,6.15-3.11,9.73-4.09,16.65-4.51,2.8-.17,5.61-.49,8.33-.79,3.87-.43,7.53-.84,10.88-.84,2.12,0,3.87.16,5.36.5,5.13,1.16,6.39,2.56,11.14,9.87,10.68,16.46,21.05,19.93,37.62,20.84,11.41.63,14.27,1.86,19.12,8.25.98,1.3,1.97,2.66,2.92,3.98,6.48,8.99,14.54,20.19,31.62,20.19,2.05,0,4.21-.17,6.42-.52,16.39-2.55,38.34-12.04,47.81-26.87.88-1.37,1.56-2.78,2.11-4.18,5.63,5.18,11.93,9.69,19.36,10.06l11.7.58.86-11.68c1.54-20.82-.69-42.55-6.13-59.61-4.78-15.01-12.71-25.62-20.42-35.2-1.97-2.44-3.87-5-5.88-7.71-5-6.73-10.16-13.68-17.01-19.72-6.66-5.87-13.9-10.54-21.02-14.95,3.38-.35,7.09-.57,10.97-.57.57,0,1.09,0,1.55.02,9.23.24,18.48,1.85,28.28,3.55,6.34,1.1,12.9,2.24,19.56,3.01,12.44,1.42,22.83,3.15,33.69,5.6.95.21,1.87.42,2.77.62,12.32,2.73,16.45,3.93,21.35,10.93,10.28,14.69,21.19,25.32,41.04,29.5,4.26.9,5.47,2.09,9.97,6.55.91.9,1.94,1.92,3.07,3,8.49,8.11,17.26,12.05,26.84,12.05,9,0,17.29-3.5,24.91-7.29,6.23-3.1,11.54-7.55,16.67-11.86,6.58-5.52,12.79-10.73,18.38-10.73.26,0,.52.01.78.03,3.78.3,6.87.44,9.74.44,13.16,0,23.35-3.1,35.16-10.71,12.82-8.26,23.61-20.05,30.37-33.22,1.22-2.38,2.82-4.85,4.5-7.45,2.52-3.89,5.12-7.91,7.18-12.63,9.32-21.35-1.4-38.13-10.02-51.61-1-1.56-2.03-3.17-2.99-4.74-.33-.54-.67-1.08-1-1.61-4.63-7.43-6.82-11.23-6.03-16.33.15-.96.3-1.91.44-2.83,1.42-9.05,2.77-17.6.87-28.54l-.15-.88-.28-.85c-2.88-8.66-5.06-17.62-6.48-26.64-.5-8.78.79-17.39,3.83-25.63l.06-.17.06-.17c.32-.94.64-1.95.98-3,1.29-4.01,3.25-10.06,5.08-12.3,2.54-3.11,13.08-7.96,18.14-10.29,2.97-1.37,5.54-2.55,7.65-3.69l1.12-.6.97-.82c3.41-2.9,7.05-4.74,11.05-5.56M1086.92,491.51h0,0M537,494.47h0,0M1494.56,136.23c-14.83,2.64-29.32,6.54-43.47,11.75-3.66,2-7.03,3.01-10.11,3.01-3.86,0-7.26-1.57-10.21-4.72-3.98-2.76-7.49-6.05-10.51-9.87-8.89.02-16.81,2.99-23.77,8.92-6.86,3.7-23.59,9.85-29.39,16.96-3.86,4.73-6.19,13.29-8.13,19.06-3.7,10.03-5.21,20.38-4.52,31.08,1.53,9.91,3.88,19.63,7.04,29.14,1.74,9.97.16,17.66-1.35,27.5-1.59,10.38,3.52,17.71,8.69,26.07,9.01,14.57,19.84,27.79,12.22,45.24-2.98,6.82-7.95,12.77-11.36,19.4-5.91,11.52-15.32,21.61-26.19,28.61-10.52,6.78-18.63,8.8-28.66,8.8-2.76,0-5.66-.15-8.8-.4-.58-.05-1.16-.07-1.73-.07-15.81,0-27.02,17.21-40.39,23.85-7.29,3.62-13.54,6.03-19.57,6.03s-12.02-2.49-18.55-8.73c-6.89-6.59-9.75-10.7-18.86-12.62-15.91-3.35-24.47-11.48-33.68-24.64-8.38-11.98-17.59-13.28-31.32-16.38-11.96-2.69-22.79-4.42-34.97-5.81-16.33-1.87-32.4-6.21-48.89-6.63-.55-.01-1.18-.02-1.86-.02-9.81,0-32.2,1.61-37.49,9.51,12.66,9.67,27.6,16.43,39.6,27,8.45,7.45,14.46,17.24,21.48,25.95,8.12,10.09,14.4,18.95,18.33,31.31,5.33,16.74,6.89,37.57,5.59,55.09-7.83-.39-17.58-13.63-23.86-18.3-6.15,2.84-4.88,12.57-8.32,17.95-7.36,11.53-26.22,19.4-39.54,21.47-1.63.25-3.15.37-4.57.37-12.82,0-17.65-9.77-24.98-19.43-8.04-10.58-15.21-12.27-28.01-12.98-13.78-.76-20.22-3.08-28.22-15.4-5.2-8-8.64-12.8-18.56-15.04-2.57-.58-5.26-.8-8.01-.8-6.65,0-13.61,1.26-19.95,1.66-8.56.53-13.68,1.92-21.32,5.78-13.32,6.74-25.9,12.33-40.36,15.93-10.86,2.71-19.36,5.48-29.45,10.46-11.12,5.49-20.45,8.31-32.74,10.14-6.82,1.01-10.67,2.3-16.53,5.85-5.43,3.28-10.09,4.56-14.43,4.56-10.22,0-18.6-7.15-30.78-12.18-16.28-6.72-34.98-5.15-52.08-8.4-7.13-1.36-13.34-2.09-19.67-2.09-4.89,0-9.85.43-15.37,1.34-10.09,1.67-19.19,3.33-29.18,3.33-1.97,0-3.97-.06-6.03-.21-17.37-1.2-34.63-4.32-51.97-5.98-2.26-.22-4.76-.71-7.13-.71-2.49,0-4.84.55-6.59,2.55-3.08,3.52,1.11,13.61,1.43,18.06.48,6.48,3.71,20.18.31,26.19-1.52,2.7-4.48,3.58-7.89,3.58-5.39,0-11.91-2.21-15.73-2.98-12.28-2.49-24.44-9.01-36.77-10.82-.6-.09-1.19-.13-1.76-.13-11.29,0-19.18,16.04-22.27,25.3-6.19,18.58-8.8,36.18-19.62,53.37-9.43,14.99-21.12,30.09-34.19,41.96-10.74,9.75-23.42,18.19-37.38,22.54-5.05,1.58-22.36,1.52-27.29,6.07.84,20.38-7.66,42.46-29.29,47.5-11.12,2.59-22.5,7.79-32.2,13.85-11.32,7.08-22.4,20.18-28.49,31.83-6.41,12.27,5.05,12.53,13.23,18.71,11.15,8.43,35.65,35.42,18.13,48.41-7.87,2.6-15.94,4.27-24.23,5.01-5.66.9-11.31,1.79-16.97,2.69-11.08,2.03-21.24,5.83-31.9,9.24-14.64,4.68-29.58,8.37-44.25,12.97-6.34,1.99-13.38,3.35-18.81,7.22-23.32,16.62-43.58,44.19-74.4,45.66-15.72.75-22.73,5.91-33.15,18.33-9.35,11.14-21.43,23.88-22.64,38.85,3.01,1.16,6.12,1.75,9.34,1.75.5,0,1.01-.01,1.51-.04,4.95,1.67,8.69,4.71,11.23,9.12,6.17,7.88,9.17,17.73,18.24,23.18,5.22,3.13,10.45,4.06,15.7,4.06,7.76,0,15.58-2.04,23.54-2.04,1.25,0,2.49.05,3.75.17,11.22,1.03,13.45,4.06,17.15,13.21,4.52,11.19.52,18.48,14.31,20.72,6.95,1.13,16-1.04,20.57,5.71,4.93,7.28-4.14,18.51,3.11,25.1,2.71,2.46,10.21,2.61,12.91,4.53,16.79,11.91.67,44.98,28.19,47.14,10.49-3.51,20.74-7.64,30.75-12.39,3.45-2.15,6.69-3.23,9.72-3.23s5.95,1.12,8.6,3.35c8.62,3.62,9.79,11.07,18.59,11.07,1.54,0,3.31-.23,5.4-.74,5.94-3.26,11.87-6.53,17.81-9.79,14.51-12.33,28.57-25.14,42.19-38.44,8.91-7.02,17.3-14.45,28.97-16.25,14.18-2.19,22.42-1.76,36.29-8.22,9.83-4.58,18.78-12.25,29.98-12.66.28-.01.56-.02.84-.02,8.62,0,15.84,4.84,24.47,4.87.03,0,.06,0,.09,0,7.19,0,12.91-3.76,19.88-4.89,1.42-.23,2.82-.35,4.2-.35,4.13,0,8.06,1.03,11.94,3.07,6.04,3.16,10.11,9.59,17.21,10.17.39.03.78.05,1.15.05,6.3,0,10.25-4.36,15.85-7.3,6.04-3.17,12.11-4.82,19.06-4.97.17,0,.35,0,.53,0,7.9,0,16.54,3.7,24.33,3.7,1.97,0,3.88-.24,5.72-.83,1.84-1.42,3.92-2.36,6.23-2.83,5.3,1.08,10.55,2.36,15.75,3.83,4.33.95,9.99,2.34,14.63,2.34.56,0,1.1-.02,1.62-.06,4.92-.41,8.44-3.14,13.05-4.01,1.27-.24,2.52-.35,3.77-.35,4.91,0,9.62,1.71,14.03,3.9,7.11,3.52,10.69,8.94,16.53,14,3.13,2.72,3.95,3.33,4.63,3.33.56,0,1.02-.41,2.58-.41.36,0,.79.02,1.28.08,1.12-.87,2.27-1.3,3.44-1.3,1.05,0,2.12.34,3.21,1.03,1.11.69,2.23,1.38,3.34,2.07,8.32,4.32,15.4,11.34,23.04,16.68,17.66,12.36,37.61,22.39,56.45,32.95,14.7,8.23,25.61,9.89,41.94,10.22,4.81.1,8.99.48,13.44,2.66,2.15,1.05,4.57,3.57,7.06,4.8,3.87-2.89,7.75-5.78,11.62-8.67,24.91-18.59,48.25-39.42,75.92-54.14,9.97-5.3,20.67-10.15,32.01-10.63,2.07-.09,4.14-.12,6.22-.12,4.55,0,9.12.14,13.65.14,5.02,0,10.81-.6,16.35-.6,3.19,0,6.3.2,9.12.83,8.75,1.95,17.49,3.59,26.54,5.41,16.34,3.28,32.42,7.12,48.92,9.76,3.93.63,7.89.82,11.87.82,6.01,0,12.05-.43,18.05-.43,1.65,0,3.3.03,4.94.12,13.13.66,28.09,5.15,40.25,9.96,6.25,2.47,12.89,5.37,19.01,8.2,2.87,1.33,5.11,3.3,7.98,3.3.68,0,1.39-.11,2.16-.36.53-5.58-5.56-16.53-8.34-21.07-4.86-7.93-12.18-13.82-17.47-21.26-11.25-15.81-29.17-21.6-45.85-30.53-9.82-5.26-18.23-13.31-26.8-20.21-4.07-3.27-8.03-6-10.8-10.66-1.55-2.61-1.71-4.83-3.05-7.35-3.04-5.72-8.14-10.34-2.2-16.77,3.83-4.16,11.18-8.02,16.45-9.82,12.63-4.3,26.13-5.97,39.17-8.12,1.45-.24,2.82-.34,4.14-.34,4.6,0,8.67,1.2,13.79,1.89,6.01.81,11.82.24,17.8,1.17,11.39,1.76,22.24,4.6,33.51,6.82,9.43,1.86,18.5,5.58,27.97,5.96.82.03,1.78.07,2.82.07,5.39,0,12.74-.9,12.13-7.45-.36-3.8-7.47-11.32-10.26-13.41-7.67-5.75-11.97-12.49-18.74-19.46-3.7-3.82-8.16-6.28-12.15-9.74-4.29-3.73-6.48-8.45-10.27-12.63-5.92-6.52-12.78-12.21-18.87-18.58-4.46-4.66-7.61-10.08-11.88-14.82-6.86-7.63-15.11-16.74-23.5-22.82-12.06-8.74-30.26-9.78-44.76-12.55-9.14-1.75-15.55-5.77-24.06-9.48-6.02-2.62-11.06-3.07-16.46-6.87-9.34-6.57-21.55-16.11-27.71-25.84-2.87-4.53-9.05-12.94-7.84-18.58.97-4.54,7.41-10.3,10.74-13.2,18.02-15.76,44.21-22.9,66.78-28.66,20.59-5.26,41.92-6,63.15-6,.48,0,.95,0,1.42,0,1.19,0,2.39,0,3.59,0,16.44,0,33.72-.6,45.15-13.86,4.61-5.34,6.84-13.21,12.03-17.76,5.06-4.43,12.14-5.68,18.51-5.78,24.56-.37,45.96-3.29,67.31-16.4,23.39-14.37,38.19-39.1,59.41-56.24,9.44-7.63,20.01-11.95,30.8-17.29,4.26-2.11,12.34-4.62,10.15-10.74-1.01-2.83-6.43-5.36-8.26-7.86-1.59-2.17-5.56-7.86-4.21-10.29,1.39.82,2.89,1.23,4.49,1.24.73-6.15,2.43-11.28,4.99-16.92,2.76-6.09,5.3-6.82,10.17-6.82,1.17,0,2.48.04,3.97.06.69,0,1.35.02,1.99.02,7.88,0,12.51-.89,18.74-7.32,8.24-8.51,15.07-17.93,23.47-26.26,18.17-18.04,40.4-35.55,65.78-41.76,20.89-5.11,42.64-13.05,54.29-31.81,9.19-14.79,14.06-26.66,14.52-44.38.4-15.57-.67-30.35-3.46-45.61-4.39-23.98-7.68-47.42-13.72-71.18-7-27.57-13.44-55.31-20.86-82.77-5.35-19.79-10.52-39.49-16.89-58.93h0Z"/>
      </g>
    </a>
    <a
      xlink:href="/univers/lieux/villes/solambre"
      class="ville-link"
      data-region-id="Veldoré">
      <title>Solambre</title>
      <g id="Solambre" class="city">
        <path class="cls-2" d="M673.01,777.88c-13.25,0-24.03-10.78-24.03-24.03s10.78-24.03,24.03-24.03,24.03,10.78,24.03,24.03-10.78,24.03-24.03,24.03Z"/>
        <path class="cls-3" d="M673.01,736.82c9.39,0,17.03,7.64,17.03,17.03s-7.64,17.03-17.03,17.03-17.03-7.64-17.03-17.03,7.64-17.03,17.03-17.03M673.01,722.82c-17.14,0-31.03,13.89-31.03,31.03s13.89,31.03,31.03,31.03,31.03-13.89,31.03-31.03-13.89-31.03-31.03-31.03h0Z"/>
      </g>
    </a>
    <a
      xlink:href="/univers/lieux/regions/doussetoile"
      class="region-link"
    >
      <title>Doussetoile</title>
      <g id="Doussetoile" class="region">
        <path class="cls-1" d="M2021.26,2131.62c-7.93,0-15.2-7.6-22.87-23.93-5.97-12.7-10.44-26.91-12.47-33.86-8.49-7.95-12.13-19.31-10.56-33.02-3.46-12.42-9.32-18.98-14.98-25.32-10.08-11.29-19.62-21.97-12.82-56.34-6.29-7.03-16.08-10.86-27.88-10.86-16.7,0-34.6,7.77-44.55,19.35-4.51,5.24-9.53,13.81-7.86,24.87.18,1.19,0,2.41-.52,3.5-5.02,10.46-6.4,17.77-4.2,22.35,1.92,4.02,6.91,6.73,12.68,9.88,11.31,6.17,26.63,14.51,26.5,39.4,3.17,2.57,4.77,5.56,4.79,8.9.03,7.22-7.34,11.57-12.73,14.74-.98.58-1.92,1.13-2.53,1.54-.57.48-1.17.99-1.8,1.51-8.29,7.01-20.83,17.62-32.73,17.62-4.65,0-11.06-1.61-16.04-8.96-6.59-2.75-13.65-4.33-21.09-6-16.18-3.62-32.9-7.37-45.1-23.68-2.87-1.5-6.33-2.29-9.98-3.12-6.35-1.44-13.55-3.08-19.34-8.98-.42-.43-.77-.91-1.05-1.44-1.59-3.08-3.91-4.99-10.53-4.99-2.4,0-5.04.25-7.6.49-.21.02-.44.03-.67.03-.12,0-.25,0-.36-.01-20.2-1.34-38.16-16.36-41.79-34.92-3.06-15.68,4.86-29.78,21.18-37.7.2-.1.4-.18.61-.25l3.81-1.35c22.78-8.06,46.33-16.4,61.21-35.56.29-.37.62-.71.99-1.01,3.58-2.86,6.27-4.52,9.39-4.52,2.21,0,3.81.87,4.76,1.39.69.37,1.21.66,2.5.74,4.17-1.37,6.14-5.08,9.14-11.29,3.43-7.11,8.05-16.69,20.18-19.06,4.27-5.85,3.62-12.9,2.23-23.43-1.37-10.43-2.92-22.22,4.04-33.1,2.74-7.19,1.88-14.64-2.43-21.04-5.1-7.56-14.24-12.45-23.31-12.45-4.56,0-8.88,1.19-12.84,3.53-.66.39-1.38.65-2.13.77-1.49.23-2.96.35-4.39.35-11.86,0-18.76-7.76-24.85-14.6-3.71-4.17-7.22-8.12-11.5-10.02-12.44-1.68-23.54-5.75-33.05-12.11-.67.13-1.34.27-2,.4-3.42.7-6.96,1.41-10.37,1.41-5.52,0-12.42-2.04-15.65-11.16-10.78-3.59-17.24-8.12-20.2-14.13-3.74-7.6-.75-15.33,1.66-21.55,3.52-9.08,4.66-13.06-3.31-17.89-13.41-4.77-19.23-11.67-24.38-17.76-5.66-6.71-10.56-12.5-26.04-16.58-2.5-.66-4.3-2.85-4.46-5.43-.37-5.92-1.64-6.93-1.69-6.97-.62-.47-2.96-.49-4.83-.51-4.08-.04-9.67-.09-15.24-3.49-1.38-.84-2.36-2.21-2.72-3.79-1.95-8.54-3.16-13.48-5.39-15.8-2.01-2.09-6.33-3.27-15.41-4.22-1.24-.13-2.41-.64-3.34-1.46-10.4-9.14-10.43-22.27-10.45-33.84-.02-8.44-.04-16.41-3.58-22.59-7.74-9.32-12.41-20.12-16.92-30.57-5.85-13.53-11.38-26.33-22.98-33.97-25.83-4.41-39.83-21.46-40.59-49.44-2.9-5.17-5.74-9.02-8.27-12.46-5.22-7.1-9.85-13.39-11.3-25.93-2.92,1.44-5.97,3.34-8.96,5.21-7.22,4.5-14.69,9.16-22.62,9.16-4.72,0-9-1.65-12.76-4.9-13.82,3.67-26.93,11.37-40.74,19.49-15.09,8.86-30.7,18.03-48.05,22.11-.17.04-.34.07-.51.1-5.17.75-11.74,3.75-18.71,6.91-9.82,4.46-19.97,9.08-29.56,9.08s-17.2-4.76-22.04-14.15c-1.93-3.49-2.04-3.63-5.53-3.9-2.36.22-5.18.83-8.15,1.47-4.44.96-9.02,1.94-13.36,1.94-5.19,0-9.31-1.5-12.23-4.46-3.16-3.2-4.7-7.76-4.69-13.9-.76-5.14-4.02-6.45-12.2-8.57-7.88-2.04-21.07-5.46-18.98-22.55.04-.33.11-.65.2-.96,4.68-15.92-2.59-22.15-16.94-32.65-4.58-3.35-9.31-6.82-13.62-11.01-.85-.83-1.44-1.89-1.69-3.06-2.4-11.34-7.6-21.43-13.1-32.11-5.31-10.3-10.79-20.95-13.66-32.94-.05-.22-.09-.43-.12-.65-.97-7.8.06-15.75,1.06-23.45,1.79-13.84,3.34-25.82-6.2-34.72-15.09-10.69-13.33-25.54-11.77-38.65.18-1.48.35-2.99.51-4.49-18.42-16.4-18.55-21.52-16.45-44.95l.09-1c-2.81-4.93-8.26-7.36-14.5-10.15-7.73-3.45-17.17-7.67-21.87-18.09-25.86-4.9-32.33-14.99-40.43-27.62-3.3-5.15-7.03-10.96-12.74-17.36-2.02-.94-4.26-1.39-6.8-1.39-4.79,0-10.1,1.57-15.71,3.22-6.22,1.84-12.66,3.74-19.26,3.74-4.44,0-8.41-.85-12.13-2.59-.92-.43-1.71-1.08-2.31-1.91-1.69-2.32-3.06-2.63-4.17-2.63-3.52,0-8.68,3.37-12.84,6.09-2.72,1.77-5.3,3.46-7.82,4.61-11.09,7.76-20.8,11.37-30.54,11.37-5.65,0-10.57-1.22-14.92-2.3-3.84-.95-7.46-1.85-11.2-1.85-4.79,0-9.54,1.51-14.93,4.74-.28.17-.57.31-.88.43-10.02,3.96-14.19,4.42-16.46,4.42-2.12,0-3.92-.49-5.38-1.45-2.13-1.41-3.36-3.71-3.36-6.31,0-3.52,1.87-8.41,15.43-20.31,8.46-7.42,19.82-16.08,32-24.38,14.31-9.76,49.56-32.45,67.89-32.45.37,0,.72,0,1.07.03,5.34-.49,10.89-.73,16.49-.73,26.38,0,52.28,5.42,77.33,10.66,9.03,1.89,18.36,3.84,27.58,5.51,1.96-.03,3.91-.04,5.86-.04,25.75,0,59.1,2.16,89.54,18.83-4.09-7.41-13.6-20.1-21.94-29.55-.17-.19-.33-.4-.47-.61-4.63-6.87-20.4-16.32-35.66-25.45-27.64-16.56-56.22-33.68-55.59-53.42.31-9.68,7.22-17.89,21.13-25.09,10.96-6.06,23.91-9,39.59-9,18.91,0,38.97,4.37,56.67,8.23,14.52,3.16,28.24,6.15,38.64,6.15,4.13,0,7.5-.47,10.18-1.42-24.92-28.49-52.49-56.58-79.2-83.8-7.04-7.17-14.05-14.32-21-21.46-11.19-5.66-23.72-8.55-36.96-11.61-16.27-3.76-33.09-7.64-47.93-17.12-26.27-16.36-38.24-32.78-35.51-48.75,4.75-27.75,51.33-42.18,78.98-48.36,13.05-4.84,27.23-5.5,39.41-5.5,3.88,0,7.8.07,11.6.14,3.72.07,7.57.14,11.3.14,19.92,0,35.76-2.21,48.17-12.88,16.35-24.21,34.01-26.23,52.69-28.37,25.34-2.9,56.87-6.51,104.39-67.5,4.23-5.6,12.87-9.31,22.01-13.23,5.12-2.2,15.68-6.73,16.84-9.38-.16-.39-1-2-4.85-4.67-.63-.44-1.17-.99-1.59-1.63l-.58-.87c-3.13-4.71-6.37-9.59-3.89-14.23.52-.96,1.92-2.98,4.88-3.63,2.19-10.4,6.51-23.7,20.48-23.7,1.08,0,2.21.09,3.36.27,17.27-4.45,30.77-18.64,45.05-33.63,17.76-18.65,36.12-37.94,64.08-41.49,24.55-5.51,41.58-16.95,52.04-34.96,28.89-49.74.91-140.22-21.58-212.92-9.3-30.09-18.09-58.5-21.5-79.95-.26-1.63.16-3.29,1.17-4.59,1-1.31,2.5-2.14,4.14-2.31,2.42-.25,4.74-.38,6.89-.38,17.2,0,23.61,8.3,28.76,14.97,5,6.48,8.95,11.6,23.31,11.6,8.45,0,19.74-1.91,33.55-5.69.09-.02.18-.05.27-.07,3.12-.7,6.14-1.06,8.97-1.06,16.55,0,24.96,11.7,32.39,22.02,3.55,4.94,6.92,9.61,11.05,13.25,4.31,1.75,8.86,3.41,13.27,5.01,26.39,9.61,56.28,20.49,51.88,59.33,2.57,16.49,3.44,33.25,2.58,49.83-.7,13.59-3.12,23.12-4.89,30.07-2.26,8.89-2.92,12.17-.63,16.29,3.08,5.54,8.08,7.1,17.38,9.6,10.01,2.69,22.48,6.03,34.11,18.53,7.42,7.97,9.36,14.24,10.78,18.82,1.21,3.92,1.77,5.71,5.13,8.07,3.42,2.4,7.38,3.52,12.47,3.52,6.68,0,14.2-1.94,22.16-4,8.79-2.27,17.88-4.61,26.95-4.61s15.96,2.13,22.42,6.5c6.03,4.08,11.12,9.54,15.17,16.24,11.99,3.27,19.62,7.12,23.91,12.02,4.82,5.52,4.66,11.31,4.54,15.53-.13,4.76-.19,7.09,6.07,10.21.31-.01.62-.02.92-.02,13.49,0,14.14,11.97,14.45,17.73.1,1.92.3,5.51.95,6.22h0s.35.19,1.34.22c.27,0,.54.03.8.08.04,0,.17.02.39.02,2.88,0,8.73-2.35,13.43-4.24,6.3-2.53,12.26-4.93,17.17-4.93s7.3,2.18,8.64,4.01c3.15,4.33,1.95,10.33.59,14.72-.01.26,0,.48,0,.65.92.14,2.46.14,3.04.14h1.41c1.86,0,4.03.04,6.14.49,2.69.58,4.63,2.92,4.72,5.67.36,10.99-6.63,22.96-12.26,32.58-1.06,1.82-2.07,3.54-2.93,5.1-4.29,7.76-4.64,17.89-1.07,30.99,5.94,21.78.91,42.94-3.96,63.41-2.98,12.53-5.79,24.37-6.3,36.39-.01.27-.04.54-.09.81-3.62,20.07.59,33.79,5.73,39.94,2.61,3.12,5.62,4.7,8.94,4.7,8.51,0,18.56-9.99,26.86-26.73.19-.39.43-.75.7-1.09,11.77-14.64,17.5-22.95,20.58-27.41,3.39-4.92,5.26-7.63,9.46-7.63,1.58,0,2.8.49,3.78.88,1.27.5,3.18,1.26,7.77,1.26,3.61,0,8.11-.48,13.36-1.43.28-.05.56-.08.84-.09.22,0,.43-.01.64-.01,4.13,0,6.61,1.67,7.96,3.08,3.25,3.39,3.06,7.91,2.91,11.54-.03.74-.06,1.48-.06,2.2,0,.26-.01.53-.05.79-.53,4.26,1.8,7.04,5.96,11.6,4.58,5.03,10.81,11.86,8.17,22.46-.03,3.04-.92,6.33-1.78,9.52-.53,1.95-1.44,5.31-1.5,7.11,8.88-1.68,17.7-6.16,27-10.89,12.32-6.26,25.05-12.73,38.83-12.73,1.94,0,3.88.13,5.78.39.21,0,.42,0,.64,0,7.13,0,14.31-3.55,21.9-7.31,8.41-4.16,17.1-8.46,26.85-8.46.44,0,.88,0,1.32.03,1.15.05,2.26.42,3.2,1.08,4.17,2.92,6.38,6.14,6.74,9.84.56,5.63-3.43,9.8-6.95,13.48-2.51,2.62-5.1,5.33-6.02,8.2-.18.56-.44,1.09-.78,1.57-11.02,15.87-16.23,33.67-20.16,50.6.42,24.48-5.95,48.29-12.11,71.33-8.93,33.39-17.36,64.92-7.26,98.94.02.07.04.13.06.2,19.15,73.73,23.69,149.6,28.08,222.98,1.41,23.53,2.86,47.85,4.78,71.69,1.31,7.64-.3,14.44-4.69,19.69-8.78,10.52-25.85,11.65-32.79,11.65-.8,0-1.59-.01-2.37-.04-32.23,2.5-56.57,15.46-72.33,38.54-31.65,46.33-24.16,124.08-6.61,181.39.09.3.16.6.2.92,1.69,11.93,6.29,24.21,11.16,37.22,9.77,26.08,19.86,53.04,6.02,78.73.82,53.54,24.65,104.35,47.71,153.52,1.89,4.02,3.76,8.03,5.62,12.01,30.92,41.11,22.35,67.03,11.52,99.81-3.06,9.26-6.23,18.84-8.88,29.74-.41,4.39,5.31,14.63,9.11,21.44,6.17,11.05,10.25,18.35,6.87,24.11-.92,1.56-3.18,4.19-8.04,4.19-3.65,0-8.51-1.48-15.76-4.79-.68-.31-1.29-.75-1.82-1.28-43.88-45.27-61.62-52.03-68.29-52.03-2.46,0-3.48.96-4.22,2-3.66,5.2-8.67,27.15,23.93,118.57.02.06.04.12.06.17,9.69,30.07-6.09,52.53-21.36,74.25-6.1,8.68-11.87,16.88-16.04,25.52-2.86,12.54-8.02,28.74-19.73,28.74Z"/>
        <path class="cls-3" d="M1500.83,135.87c29.46,0,18.53,26.57,52.07,26.57,8.44,0,19.71-1.69,35.13-5.9,2.78-.62,5.32-.91,7.66-.91,20.64,0,25.76,22.36,40.28,34.45,30.25,12.46,67.4,18.1,62.26,59.26,1.8,11.28,3.73,28.49,2.64,49.41-1.52,29.31-11.18,38.06-4.77,49.59,9.25,16.63,32.13,7.59,52.35,29.3,12.78,13.72,6.6,20.52,16.85,27.71,4.82,3.38,10.19,4.61,15.92,4.61,15.16,0,32.79-8.61,49.11-8.61,6.65,0,13.09,1.43,19.05,5.47,7.78,5.27,12.24,12.16,14.58,16.43,46.93,11.92,11.11,26.8,37.34,38.71.74-.08,1.42-.12,2.05-.12,15.5,0,1.53,23.71,16.56,24.16.43.07.89.11,1.37.11,7.99,0,23.01-9.17,30.6-9.17,4.21,0,6.13,2.82,3.29,11.6-.71,7.6,3.93,7.92,8.98,7.92.47,0,.94,0,1.4,0,1.69,0,3.37.04,4.87.36.37,11.18-9.21,25.12-14.44,34.58-6.03,10.9-4.76,23.91-1.61,35.47,8.97,32.88-9.07,65.04-10.46,97.96-5.5,30.52,5.29,51.71,20.58,51.71,9.93,0,21.75-8.94,32.24-30.06,22.08-27.47,23.09-32.8,25.37-32.79,1.44,0,3.4,2.14,11.55,2.14,3.51,0,8.17-.4,14.43-1.53.14,0,.27,0,.41,0,6.25,0,4.78,5.91,4.81,10.86-1.87,15.03,18.53,18.87,14.06,34.07.48,7.35-8.76,22.19,1.95,23.58,22.79-3.4,43.89-23.84,66.62-23.84,1.74,0,3.49.12,5.25.38.39.02.78.02,1.17.02,17.01,0,32-15.77,48.75-15.77.36,0,.72,0,1.08.02,11.97,8.39-4.88,13.56-8.5,24.75-11.37,16.37-16.86,34.38-21.24,53.39,1.32,57.97-37.11,111.98-19.11,172.6,25.16,96.85,24.81,195.84,32.71,293.93,3.5,19.22-16.13,24.58-31.52,24.58-.85,0-1.68-.02-2.49-.05-115.93,8.72-110.3,143.62-84.55,227.7,5.3,37.4,37.65,77.89,17.11,113.58.42,60.12,29.28,116.66,54.17,170.16,37.93,50.06,14.12,74.81,1.9,125.36-1.99,13.5,26.46,44.82,13.85,44.82-2.55,0-6.77-1.28-13.26-4.25-37.27-38.44-60.03-53.85-72.6-53.85-25.75,0-8.72,64.71,14.06,128.59,12.49,38.77-22.56,64.68-37.39,95.95-4.01,17.93-8.92,24.72-14.03,24.72-11.81,0-24.69-36.24-30.06-55.12-9.2-7.73-11.29-18.76-9.75-30.11-9.81-37.72-39.27-28.06-27.45-82.81-7.91-10.66-20.71-15.29-34.33-15.29-29.49,0-62.79,21.74-58.34,51.12-24.61,51.24,37.23,27.01,34.29,77.31,12.83,7.39-3.09,13.84-8,17.31-7.6,6.35-20.28,17.91-30.89,17.91-4.55,0-8.72-2.13-11.94-7.72-22.44-10.17-49.66-6.24-66.2-29.5-9.1-5.57-21.16-3.61-29.13-11.72-3.48-6.72-9.42-8.23-15.85-8.23-2.71,0-5.5.27-8.23.53-33.03-2.2-53.74-44.07-18.38-61.24,24.49-8.72,50.91-17.22,67.75-38.89,3.06-2.44,4.54-3.21,5.64-3.21,1.84,0,2.64,2.14,8.01,2.15,16.37-4.11,11.7-28.71,31.73-30.77,15.14-16.52-4.22-40.43,8.46-59.35,8.89-21.94-10.35-42.26-31.1-42.26-5.35,0-10.8,1.35-15.9,4.37-1.21.19-2.36.28-3.46.28-16.03,0-21.01-19.08-34.79-24.47-12.32-1.56-23.53-5.59-33.24-12.61-4.82.8-9.63,2.17-13.75,2.17-5.08,0-9.1-2.09-10.75-9.91-47.45-13.95,5.11-37.15-24.19-54.28-26.47-9.14-19.15-26.17-51.44-34.68-1.29-20.49-13.28-8.78-24.63-15.71-4.32-18.95-5.45-22.51-26.03-24.66-15.22-13.39-2.83-38.41-13.07-55.4-17.8-21.1-18.96-52.21-42.64-66.79-25.71-3.92-36.56-20.69-36.8-45.31-10.52-19.43-19.84-21.08-20.02-45-12.38,1.99-25.4,16.58-37.11,16.58-3.8,0-7.45-1.53-10.91-5.52-31.78,6.95-59.02,34.62-92.03,42.37-13.62,1.99-32.56,15.93-47.4,15.93-6.72,0-12.59-2.86-16.75-10.98-2.76-4.98-4.09-6.58-10.85-7.09-6.45.49-14.85,3.43-21.48,3.43s-11.05-2.68-10.92-12.74c-2.56-20.8-34.02-7.17-31.23-30.01,8.14-27.68-16.21-34.18-32.14-49.66-5-23.61-21.25-41.98-26.79-65.2-2.6-20.89,11.01-45.47-7.33-62.11-15.03-10.41-9.93-25.65-8.78-40.95-19.71-17.18-18.75-19.04-16.48-44.61-7.41-16.81-32.06-12.63-38.11-32.4-37.46-6.05-32.5-21.1-53.87-44.51-3.39-1.84-6.9-2.54-10.5-2.54-11.35,0-23.52,6.96-34.97,6.96-3.27,0-6.48-.57-9.59-2.02-2.7-3.72-5.79-5.1-9.02-5.1-8.13,0-17.21,8.76-23.62,11.44-11.67,8.27-20.29,10.63-27.58,10.63-9.68,0-17.03-4.16-26.12-4.16-5.19,0-10.94,1.35-18.02,5.6-7.01,2.77-11.63,4-14.26,4-20.24,0,77.64-72.9,106.58-72.89.4,0,.79.01,1.17.04,5.5-.52,10.96-.75,16.39-.75,35.35,0,69.5,9.9,104.42,16.18,2.12-.03,4.24-.05,6.36-.05,30.35,0,60.63,3.47,87.77,18.71,3.05,1.28,5.29,1.85,6.85,1.85,12.29,0-17.35-35.38-22.52-41.25-16.94-25.12-134.36-63.26-72.26-95.32,11-6.1,23.59-8.3,36.76-8.3,33.72,0,71.2,14.38,95.31,14.38,8.19,0,14.84-1.66,19.27-6.1-32.84-38.12-70.15-74.97-105.67-111.46-26.27-13.71-59.42-12.38-85.28-28.9-72.56-45.19-10.86-74.57,41.96-86.29,11.75-4.45,24.62-5.27,37.7-5.27,7.63,0,15.32.28,22.9.28,19.4,0,38.02-1.83,52.71-14.88,35.88-54.1,73.2,11.73,157.27-96.17,9.49-12.55,58.58-17.92,32.69-35.9-2.52-3.84-6.7-9.62-2.65-9.62.71,0,1.67.18,2.93.57,1.85-9.83,4.2-24.08,15.61-24.08,1.09,0,2.26.13,3.52.41,42.02-9.66,61.28-69.36,109.98-75.33,139.19-30.92,28.23-244.2,13.86-334.69,2.27-.24,4.35-.35,6.26-.35M1500.83,123.87h0c-2.35,0-4.88.14-7.51.41-3.28.34-6.27,2.02-8.27,4.63-2.01,2.61-2.85,5.93-2.33,9.19,3.47,21.87,12.32,50.48,21.69,80.78,22.14,71.58,49.69,160.67,22.12,208.13-9.54,16.42-25.21,26.92-47.9,32.06-29.92,3.92-49.81,24.81-67.38,43.26-13.34,14.02-25.98,27.29-41.11,31.66-.99-.11-1.98-.16-2.94-.16-5.53,0-15.73,1.91-21.98,14.69-1.68,3.43-2.82,7.11-3.68,10.66-2.09,1.2-3.82,2.95-5,5.15-4.18,7.8.85,15.37,4.18,20.38l.56.84c.59.89,1.29,1.7,2.08,2.4-3.09,1.57-7.03,3.27-9.83,4.47-9.85,4.23-19.16,8.22-24.41,15.1-45.95,58.96-74.83,62.26-100.3,65.18-19.05,2.18-38.74,4.43-56.51,30.27-10.95,9.07-24.9,10.93-43.67,10.93-3.67,0-7.49-.07-11.19-.14-3.82-.07-7.78-.14-11.71-.14-12.59,0-27.28.69-41.11,5.73-14.02,3.15-33.94,8.7-50.79,17.46-19.16,9.96-30.06,21.95-32.4,35.65-1.65,9.65,1.02,19.36,7.94,28.86,6.4,8.77,16.31,17.28,30.31,26,15.7,10,33.01,14,49.75,17.87,12.52,2.89,24.38,5.63,34.72,10.68,6.74,6.91,13.62,13.93,20.29,20.73,23.97,24.42,48.63,49.55,71.4,75-9.56-.34-22.15-3.08-35.44-5.98-17.99-3.92-38.39-8.36-57.95-8.36-16.69,0-30.57,3.18-42.42,9.71-15.75,8.17-23.92,18.33-24.3,30.19-.47,15.01,11.84,26.7,21.15,34.18,10.72,8.62,24.26,16.73,37.35,24.58,13.31,7.97,29.88,17.9,33.76,23.66.29.43.61.84.95,1.23,2.97,3.37,6.24,7.35,9.34,11.36-25.58-9.2-51.48-10.6-72.44-10.6-1.73,0-3.53.01-5.36.03-8.95-1.63-18.04-3.53-26.85-5.37-25.35-5.3-51.57-10.79-78.56-10.79-5.64,0-11.23.24-16.64.72-.31-.01-.61-.02-.92-.02-17.23,0-45.78,16.54-66.7,30.42-19.9,13.2-45.48,32.69-52.11,44.16-4.17,7.22-2.23,12.73-.7,15.38,1.2,2.09,4.87,6.94,12.93,6.94,4.44,0,10.2-1.49,18.67-4.84.61-.24,1.2-.53,1.76-.87,5.81-3.48,9.54-3.89,11.85-3.89,3.01,0,6.14.78,9.76,1.68,4.68,1.16,9.99,2.48,16.37,2.48,10.89,0,21.57-3.87,33.54-12.16,2.77-1.32,5.47-3.09,8.1-4.8,2.23-1.45,6.6-4.31,8.86-4.97,0,0,.01.02.02.03,1.19,1.64,2.78,2.95,4.62,3.81,4.47,2.09,9.41,3.15,14.68,3.15,7.47,0,14.64-2.12,20.96-3.98,5.19-1.53,10.08-2.98,14.01-2.98,1.24,0,2.29.14,3.24.44,4.87,5.61,8.11,10.66,11.25,15.55,4.46,6.95,8.67,13.51,16.04,19.07,6.55,4.94,14.55,8.31,25.4,10.62,5.9,10.41,15.85,14.85,23.47,18.25,5.26,2.35,8.77,4,10.78,6.3-1.09,12.14-1.65,19.65,1.28,27.49,2.67,7.15,7.88,12.84,14.95,19.25-.05.45-.11.91-.16,1.37-1.57,13.22-3.7,31.25,13.9,44,6.67,6.45,5.94,14.99,4.08,29.31-1.04,8.07-2.12,16.41-1.06,24.96.05.44.13.88.24,1.31,3.03,12.7,8.69,23.68,14.16,34.3,5.31,10.31,10.33,20.05,12.56,30.6.49,2.33,1.67,4.46,3.38,6.12,4.61,4.48,9.52,8.07,14.26,11.55,13.7,10.03,18.26,14.11,14.73,26.12-.19.63-.32,1.28-.4,1.93-1.47,12.02,3.55,18.84,8.02,22.46,4.81,3.88,10.44,5.34,15.41,6.63,2.04.53,6.83,1.77,7.5,2.68.03.04.12.23.2.63.1,7.45,2.26,13.36,6.42,17.58,4.09,4.14,9.64,6.24,16.5,6.24,4.98,0,10.1-1.1,14.62-2.08,2.48-.53,4.84-1.04,6.74-1.28.11.2.24.42.39.69,5.88,11.33,15.32,17.31,27.33,17.31,10.89,0,21.64-4.89,32.04-9.62,6.28-2.85,12.77-5.8,17.09-6.44.34-.05.68-.11,1.01-.19,18.24-4.29,34.24-13.69,49.72-22.77,12.5-7.34,24.39-14.32,36.48-18.06,5.12,3.44,10.19,4.31,13.99,4.31,9.65,0,18.23-5.35,25.8-10.07.49-.31.99-.61,1.48-.92,2.41,8.72,6.52,14.31,10.78,20.1,2.32,3.15,4.7,6.39,7.16,10.6,1.31,29.42,16.89,48.25,44.21,53.42,9.45,6.73,14.27,17.88,19.8,30.67,4.61,10.67,9.38,21.7,17.44,31.57,2.53,4.8,2.54,11.82,2.56,19.22.03,12.21.06,27.4,12.49,38.33,1.87,1.64,4.2,2.67,6.68,2.92,9.93,1.04,11.5,2.19,11.71,2.41,1.19,1.23,2.8,8.3,3.87,12.98.72,3.15,2.68,5.88,5.44,7.57,6.98,4.27,13.8,4.33,18.31,4.37.14,0,.28,0,.43,0,.06.51.12,1.12.17,1.85.32,5.16,3.92,9.53,8.92,10.85,13.65,3.6,17.57,8.24,22.99,14.65,5.28,6.26,11.82,14,26.31,19.31,1.78,1.16,2.63,2.11,2.66,2.47.13,1.56-1.22,5.04-2.3,7.83-2.68,6.93-6.35,16.41-1.45,26.37,3.44,6.99,10.21,12.23,21.09,16.26,3.84,7.95,10.9,12.38,20.14,12.38,3.87,0,7.58-.73,11.17-1.45,9.53,5.93,20.42,9.8,32.48,11.56,2.88,1.55,5.76,4.79,8.8,8.2,6.24,7.01,14.78,16.61,29.33,16.61,1.73,0,3.52-.14,5.32-.42,1.51-.24,2.95-.76,4.26-1.53,3.01-1.79,6.3-2.69,9.77-2.69,7.12,0,14.32,3.85,18.33,9.8,2.21,3.28,4.28,8.49,1.99,15.03-7.73,12.54-5.98,25.81-4.57,36.54,1.14,8.63,1.53,13.7-.15,17.41-13.06,3.77-18.37,14.77-21.71,21.68-1.96,4.06-3.16,6.26-4.33,7.38-1.44-.71-3.71-1.61-6.66-1.61-5.38,0-9.44,2.88-13.13,5.83-.74.59-1.41,1.27-1.99,2.01-13.81,17.77-36.52,25.81-58.48,33.59-1.28.45-2.55.9-3.81,1.35-.41.15-.82.32-1.22.51-9.66,4.69-16.72,11.18-20.96,19.28-3.98,7.61-5.19,16.24-3.49,24.96,1.97,10.09,7.72,19.67,16.19,26.97,8.69,7.49,19.73,12.03,31.09,12.79.27.02.53.03.8.03.38,0,.76-.02,1.13-.05h.07c2.53-.25,4.92-.47,7.03-.47,4.29,0,4.69.77,5.2,1.75.55,1.06,1.25,2.03,2.09,2.89,7.03,7.16,15.49,9.08,22.29,10.63,2.85.65,5.4,1.23,7.43,2.07,13.44,17.06,31.58,21.13,47.66,24.73,6.58,1.47,12.86,2.88,18.57,5.07,5.03,6.5,11.95,10.03,19.87,10.03,14.1,0,27.65-11.45,36.61-19.03.52-.44,1.02-.87,1.51-1.27.5-.32,1.31-.8,1.99-1.19,5.88-3.47,15.73-9.26,15.68-19.94-.02-3.24-.99-7.47-4.83-11.51-.38-10.8-3.53-19.69-9.56-27.03-6.03-7.35-13.8-11.59-20.04-14.99-4.45-2.43-9.06-4.94-10.14-7.2-.47-.99-1.57-5.15,4.2-17.16,1.04-2.17,1.41-4.61,1.05-6.99-1.07-7.07,1.11-13.82,6.47-20.06,8.88-10.32,24.96-17.26,40-17.26,5.39,0,14.61.98,21.39,6.88-2.57,14.5-2.4,25.85.48,35.37,3.17,10.44,9.1,17.09,14.34,22.96,5.49,6.15,10.28,11.51,13.37,21.86-1.69,17.6,4.61,28.84,11.34,35.68,2.25,7.53,6.62,21.02,12.35,33.21,5.99,12.75,14.62,27.38,28.3,27.38,17.29,0,23.13-22.57,25.43-32.73,3.95-7.98,9.45-15.81,15.25-24.07,15.36-21.85,32.77-46.63,22.16-79.54-.04-.12-.08-.23-.12-.35-10.95-30.7-18.58-56.1-22.69-75.5-5.57-26.3-3.2-34.93-2.28-37.04,1.7.15,7.44,1.37,19.59,10.2,11.74,8.53,26.54,21.98,44,39.99,1.04,1.07,2.27,1.94,3.63,2.56,8.18,3.74,13.64,5.33,18.25,5.33,5.73,0,10.55-2.61,13.21-7.15,5.12-8.72-.14-18.14-6.81-30.07-2.61-4.67-7.95-14.24-8.34-17.84,2.56-10.37,5.61-19.6,8.56-28.54,10.89-32.96,20.31-61.46-12.04-104.79-1.77-3.81-3.56-7.63-5.36-11.46-22.56-48.12-45.88-97.84-47.11-149.55,14.01-27.67,3.17-56.61-6.43-82.25-4.75-12.69-9.24-24.68-10.84-35.95-.09-.62-.22-1.23-.41-1.83-9.44-30.82-14.69-63.87-14.78-93.07-.11-34.53,7.02-63.3,20.6-83.18,14.63-21.42,37.35-33.51,67.52-35.92.74.02,1.49.03,2.23.03,9.66,0,27.37-1.79,37.4-13.81,3.85-4.61,7.98-12.54,6.04-24.28-1.9-23.7-3.35-47.9-4.75-71.31-4.41-73.66-8.97-149.83-28.26-224.13-.04-.13-.07-.27-.11-.4-9.62-32.39-1.4-63.13,7.3-95.68,6.2-23.2,12.62-47.18,12.32-72.23,3.78-16.13,8.78-32.99,19.08-47.82.67-.97,1.2-2.03,1.56-3.15.51-1.56,2.8-3.97,4.65-5.9,3.97-4.15,9.41-9.84,8.59-18.22-.54-5.47-3.66-10.23-9.27-14.16-1.88-1.32-4.1-2.07-6.39-2.16-.52-.02-1.05-.03-1.57-.03-11.15,0-20.9,4.82-29.51,9.08-6.95,3.44-13.51,6.68-19.24,6.68-.06,0-.12,0-.17,0-2.05-.27-4.15-.4-6.24-.4-15.21,0-28.6,6.8-41.55,13.38-5.57,2.83-10.95,5.57-16.18,7.59.58-2.36,1.06-4.76,1.16-7.21,3.01-13.33-4.9-22.01-9.71-27.28-3.78-4.14-4.61-5.42-4.43-6.82.06-.52.1-1.05.09-1.57,0-.52.02-1.19.05-1.9.17-4.01.44-10.71-4.58-15.94-2.16-2.25-6.04-4.93-12.29-4.93-.28,0-.57,0-.86.02-.57.02-1.13.08-1.68.18-4.9.89-9.04,1.34-12.29,1.34-3.44,0-4.62-.47-5.56-.84-1.22-.49-3.27-1.3-5.99-1.3-7.35,0-10.78,4.96-14.4,10.22-3.04,4.4-8.69,12.58-20.32,27.06-.54.68-1.01,1.41-1.4,2.18-9.17,18.47-17.82,23.39-21.49,23.39-.55,0-2.21,0-4.34-2.55-4.08-4.88-7.68-16.97-4.43-35.03.1-.54.16-1.08.18-1.62.48-11.44,3.23-23.01,6.14-35.25,5.04-21.2,10.25-43.12,3.91-66.38-3.14-11.51-2.97-20.18.53-26.5.83-1.5,1.82-3.19,2.86-4.98,6.01-10.29,13.5-23.09,13.08-35.81-.18-5.5-4.08-10.16-9.45-11.33-1.6-.35-3.16-.51-4.61-.58.48-4.31,0-8.99-2.99-13.09-1.76-2.42-5.85-6.48-13.49-6.48-6.07,0-12.55,2.6-19.41,5.36-2.45.98-6.07,2.44-8.67,3.23,0-.1-.01-.2-.02-.29-.2-3.76-.46-8.45-2.61-12.89-3.17-6.52-9.42-10.32-17.22-10.51-.94-.56-1.39-.97-1.57-1.15-.08-.6-.04-1.9-.02-2.88.12-4.62.33-12.36-6.02-19.64-4.86-5.57-12.54-9.73-24.58-13.23-4.28-6.52-9.52-11.91-15.65-16.06-7.48-5.07-15.92-7.53-25.78-7.53-9.83,0-19.3,2.44-28.45,4.8-7.58,1.96-14.74,3.81-20.66,3.81-3.84,0-6.63-.75-9.02-2.43-1.69-1.19-1.75-1.4-2.85-4.94-1.5-4.84-3.76-12.16-12.12-21.14-12.81-13.76-26.76-17.5-36.95-20.23-8.67-2.33-11.87-3.43-13.69-6.72-1.09-1.95-.93-3.51,1.2-11.9,1.83-7.2,4.33-17.05,5.07-31.24.87-16.74.02-33.65-2.52-50.28,1.92-18.84-3.7-34.04-16.72-45.2-10.87-9.32-25.26-14.56-39.17-19.62-4.02-1.46-8.16-2.97-12.08-4.54-3.33-3.12-6.3-7.25-9.42-11.58-7.85-10.92-17.63-24.51-37.26-24.51-3.27,0-6.73.4-10.29,1.2-.18.04-.36.08-.54.13-13.3,3.63-24.06,5.48-31.97,5.48-11.42,0-13.96-3.29-18.56-9.26-5.32-6.89-13.36-17.31-33.51-17.31h0Z"/>
      </g>
    </a>
    <a
      xlink:href="/univers/lieux/villes/clairbois"
      class="ville-link"
      data-region-id="Doussetoile">
      <title>Clairbois</title>
      <g id="Clairbois" class="city">
        <path class="cls-2" d="M1716.94,1276.93c-13.25,0-24.03-10.78-24.03-24.03s10.78-24.03,24.03-24.03,24.03,10.78,24.03,24.03-10.78,24.03-24.03,24.03Z"/>
        <path class="cls-3" d="M1716.94,1235.87c9.39,0,17.03,7.64,17.03,17.03s-7.64,17.03-17.03,17.03-17.03-7.64-17.03-17.03,7.64-17.03,17.03-17.03M1716.94,1221.87c-17.14,0-31.03,13.89-31.03,31.03s13.89,31.03,31.03,31.03,31.03-13.89,31.03-31.03-13.89-31.03-31.03-31.03h0Z"/>
      </g>
    </a>
  </g>
</svg>